<svg xmlns="http://www.w3.org/2000/svg" xmlns:xlink="http://www.w3.org/1999/xlink" id="processonSvg1000" viewBox="3.5 4.0 490.0 608.0" width="490.0" height="608.0"><defs id="ProcessOnDefs1001"/><g id="ProcessOnG1002"><path id="ProcessOnPath1003" d="M3.5 4.0H493.5V612.0H3.5V4.0Z" fill="#ffffff"/><g id="ProcessOnG1004"><g id="ProcessOnG1005" transform="matrix(1.0,0.0,0.0,1.0,23.5,47.0)" opacity="1.0"><path id="ProcessOnPath1006" d="M0.0 4.0Q0.0 0.0 4.0 0.0L46.0 0.0Q50.0 0.0 50.0 4.0L50.0 46.0Q50.0 50.0 46.0 50.0L4.0 50.0Q0.0 50.0 0.0 46.0Z" stroke="#ffcc99" stroke-width="2.0" stroke-dasharray="none" opacity="1.0" fill="#ffff66"/><g id="ProcessOnG1007" transform="matrix(1.0,0.0,0.0,1.0,10.0,16.875)"><text id="ProcessOnText1008" fill="#000000" font-size="13" x="14.0" y="13.325" font-family="Comic Sans MS" font-weight="bold" font-style="normal" text-decoration="none" family="Comic Sans MS" text-anchor="middle" size="13">80</text></g></g><g id="ProcessOnG1009" transform="matrix(1.0,0.0,0.0,1.0,73.5,47.0)" opacity="1.0"><path id="ProcessOnPath1010" d="M0.0 4.0Q0.0 0.0 4.0 0.0L46.0 0.0Q50.0 0.0 50.0 4.0L50.0 46.0Q50.0 50.0 46.0 50.0L4.0 50.0Q0.0 50.0 0.0 46.0Z" stroke="#ffcc99" stroke-width="2.0" stroke-dasharray="none" opacity="1.0" fill="#66ff66"/><g id="ProcessOnG1011" transform="matrix(1.0,0.0,0.0,1.0,10.0,16.875)"><text id="ProcessOnText1012" fill="#000000" font-size="13" x="14.0" y="13.325" font-family="Comic Sans MS" font-weight="bold" font-style="normal" text-decoration="none" family="Comic Sans MS" text-anchor="middle" size="13">93</text></g></g><g id="ProcessOnG1013" transform="matrix(1.0,0.0,0.0,1.0,123.5,47.0)" opacity="1.0"><path id="ProcessOnPath1014" d="M0.0 4.0Q0.0 0.0 4.0 0.0L46.0 0.0Q50.0 0.0 50.0 4.0L50.0 46.0Q50.0 50.0 46.0 50.0L4.0 50.0Q0.0 50.0 0.0 46.0Z" stroke="#ffcc99" stroke-width="2.0" stroke-dasharray="none" opacity="1.0" fill="#99ccff"/><g id="ProcessOnG1015" transform="matrix(1.0,0.0,0.0,1.0,10.0,16.875)"><text id="ProcessOnText1016" fill="#000000" font-size="13" x="14.0" y="13.325" font-family="Comic Sans MS" font-weight="bold" font-style="normal" text-decoration="none" family="Comic Sans MS" text-anchor="middle" size="13">60</text></g></g><g id="ProcessOnG1017" transform="matrix(1.0,0.0,0.0,1.0,173.5,47.0)" opacity="1.0"><path id="ProcessOnPath1018" d="M0.0 4.0Q0.0 0.0 4.0 0.0L46.0 0.0Q50.0 0.0 50.0 4.0L50.0 46.0Q50.0 50.0 46.0 50.0L4.0 50.0Q0.0 50.0 0.0 46.0Z" stroke="#ffcc99" stroke-width="2.0" stroke-dasharray="none" opacity="1.0" fill="#ff66ff"/><g id="ProcessOnG1019" transform="matrix(1.0,0.0,0.0,1.0,10.0,16.875)"><text id="ProcessOnText1020" fill="#000000" font-size="13" x="14.0" y="13.325" font-family="Comic Sans MS" font-weight="bold" font-style="normal" text-decoration="none" family="Comic Sans MS" text-anchor="middle" size="13">12</text></g></g><g id="ProcessOnG1021" transform="matrix(1.0,0.0,0.0,1.0,223.5,47.0)" opacity="1.0"><path id="ProcessOnPath1022" d="M0.0 4.0Q0.0 0.0 4.0 0.0L46.0 0.0Q50.0 0.0 50.0 4.0L50.0 46.0Q50.0 50.0 46.0 50.0L4.0 50.0Q0.0 50.0 0.0 46.0Z" stroke="#ffcc99" stroke-width="2.0" stroke-dasharray="none" opacity="1.0" fill="#ffff66"/><g id="ProcessOnG1023" transform="matrix(1.0,0.0,0.0,1.0,10.0,16.875)"><text id="ProcessOnText1024" fill="#000000" font-size="13" x="14.0" y="13.325" font-family="Comic Sans MS" font-weight="bold" font-style="normal" text-decoration="none" family="Comic Sans MS" text-anchor="middle" size="13">42</text></g></g><g id="ProcessOnG1025" transform="matrix(1.0,0.0,0.0,1.0,273.5,47.0)" opacity="1.0"><path id="ProcessOnPath1026" d="M0.0 4.0Q0.0 0.0 4.0 0.0L46.0 0.0Q50.0 0.0 50.0 4.0L50.0 46.0Q50.0 50.0 46.0 50.0L4.0 50.0Q0.0 50.0 0.0 46.0Z" stroke="#ffcc99" stroke-width="2.0" stroke-dasharray="none" opacity="1.0" fill="#66ff66"/><g id="ProcessOnG1027" transform="matrix(1.0,0.0,0.0,1.0,10.0,16.875)"><text id="ProcessOnText1028" fill="#000000" font-size="13" x="14.0" y="13.325" font-family="Comic Sans MS" font-weight="bold" font-style="normal" text-decoration="none" family="Comic Sans MS" text-anchor="middle" size="13">30</text></g></g><g id="ProcessOnG1029" transform="matrix(1.0,0.0,0.0,1.0,323.5,47.0)" opacity="1.0"><path id="ProcessOnPath1030" d="M0.0 4.0Q0.0 0.0 4.0 0.0L46.0 0.0Q50.0 0.0 50.0 4.0L50.0 46.0Q50.0 50.0 46.0 50.0L4.0 50.0Q0.0 50.0 0.0 46.0Z" stroke="#ffcc99" stroke-width="2.0" stroke-dasharray="none" opacity="1.0" fill="#99ccff"/><g id="ProcessOnG1031" transform="matrix(1.0,0.0,0.0,1.0,10.0,16.875)"><text id="ProcessOnText1032" fill="#000000" font-size="13" x="14.0" y="13.325" font-family="Comic Sans MS" font-weight="bold" font-style="normal" text-decoration="none" family="Comic Sans MS" text-anchor="middle" size="13">68</text></g></g><g id="ProcessOnG1033" transform="matrix(1.0,0.0,0.0,1.0,373.5,47.0)" opacity="1.0"><path id="ProcessOnPath1034" d="M0.0 4.0Q0.0 0.0 4.0 0.0L46.0 0.0Q50.0 0.0 50.0 4.0L50.0 46.0Q50.0 50.0 46.0 50.0L4.0 50.0Q0.0 50.0 0.0 46.0Z" stroke="#ffcc99" stroke-width="2.0" stroke-dasharray="none" opacity="1.0" fill="#ff66ff"/><g id="ProcessOnG1035" transform="matrix(1.0,0.0,0.0,1.0,10.0,16.875)"><text id="ProcessOnText1036" fill="#000000" font-size="13" x="14.0" y="13.325" font-family="Comic Sans MS" font-weight="bold" font-style="normal" text-decoration="none" family="Comic Sans MS" text-anchor="middle" size="13">85</text></g></g><g id="ProcessOnG1037" transform="matrix(1.0,0.0,0.0,1.0,423.5,47.0)" opacity="1.0"><path id="ProcessOnPath1038" d="M0.0 4.0Q0.0 0.0 4.0 0.0L46.0 0.0Q50.0 0.0 50.0 4.0L50.0 46.0Q50.0 50.0 46.0 50.0L4.0 50.0Q0.0 50.0 0.0 46.0Z" stroke="#ffcc99" stroke-width="2.0" stroke-dasharray="none" opacity="1.0" fill="#ffff66"/><g id="ProcessOnG1039" transform="matrix(1.0,0.0,0.0,1.0,10.0,16.875)"><text id="ProcessOnText1040" fill="#000000" font-size="13" x="14.0" y="13.325" font-family="Comic Sans MS" font-weight="bold" font-style="normal" text-decoration="none" family="Comic Sans MS" text-anchor="middle" size="13">10</text></g></g><g id="ProcessOnG1041"><path id="ProcessOnPath1042" d="M48.5 97.0L48.5 127.0L248.5 127.0L248.5 97.0" stroke="#ff6666" stroke-width="2.0" stroke-dasharray="none" fill="none"/></g><g id="ProcessOnG1043"><path id="ProcessOnPath1044" d="M248.5 97.0L248.5 127.0L448.5 127.0L448.5 97.0" stroke="#ff6666" stroke-width="2.0" stroke-dasharray="none" fill="none"/></g><g id="ProcessOnG1045"><path id="ProcessOnPath1046" d="M98.5 97.0L98.5 142.0L298.5 142.0L298.5 97.0" stroke="#66ff66" stroke-width="2.0" stroke-dasharray="none" fill="none"/></g><g id="ProcessOnG1047"><path id="ProcessOnPath1048" d="M198.5 97.0L198.5 157.0L398.5 157.0L398.5 97.0" stroke="#ff66ff" stroke-width="2.0" stroke-dasharray="none" fill="none"/></g><g id="ProcessOnG1049"><path id="ProcessOnPath1050" d="M148.5 97.0L148.5 150.0L340.0 150.0L340.0 97.0" stroke="#33ffff" stroke-width="2.0" stroke-dasharray="none" fill="none"/></g><g id="ProcessOnG1051" transform="matrix(1.0,0.0,0.0,1.0,23.5,193.0)" opacity="1.0"><path id="ProcessOnPath1052" d="M0.0 4.0Q0.0 0.0 4.0 0.0L46.0 0.0Q50.0 0.0 50.0 4.0L50.0 46.0Q50.0 50.0 46.0 50.0L4.0 50.0Q0.0 50.0 0.0 46.0Z" stroke="#ffcc99" stroke-width="2.0" stroke-dasharray="none" opacity="1.0" fill="#ffff66"/><g id="ProcessOnG1053" transform="matrix(1.0,0.0,0.0,1.0,10.0,16.875)"><text id="ProcessOnText1054" fill="#000000" font-size="13" x="14.0" y="13.325" font-family="Comic Sans MS" font-weight="bold" font-style="normal" text-decoration="none" family="Comic Sans MS" text-anchor="middle" size="13">10</text></g></g><g id="ProcessOnG1055" transform="matrix(1.0,0.0,0.0,1.0,73.5,193.0)" opacity="1.0"><path id="ProcessOnPath1056" d="M0.0 4.0Q0.0 0.0 4.0 0.0L46.0 0.0Q50.0 0.0 50.0 4.0L50.0 46.0Q50.0 50.0 46.0 50.0L4.0 50.0Q0.0 50.0 0.0 46.0Z" stroke="#ffcc99" stroke-width="2.0" stroke-dasharray="none" opacity="1.0" fill="#66ff66"/><g id="ProcessOnG1057" transform="matrix(1.0,0.0,0.0,1.0,10.0,16.875)"><text id="ProcessOnText1058" fill="#000000" font-size="13" x="14.0" y="13.325" font-family="Comic Sans MS" font-weight="bold" font-style="normal" text-decoration="none" family="Comic Sans MS" text-anchor="middle" size="13">30</text></g></g><g id="ProcessOnG1059" transform="matrix(1.0,0.0,0.0,1.0,123.5,193.0)" opacity="1.0"><path id="ProcessOnPath1060" d="M0.0 4.0Q0.0 0.0 4.0 0.0L46.0 0.0Q50.0 0.0 50.0 4.0L50.0 46.0Q50.0 50.0 46.0 50.0L4.0 50.0Q0.0 50.0 0.0 46.0Z" stroke="#ffcc99" stroke-width="2.0" stroke-dasharray="none" opacity="1.0" fill="#99ccff"/><g id="ProcessOnG1061" transform="matrix(1.0,0.0,0.0,1.0,10.0,16.875)"><text id="ProcessOnText1062" fill="#000000" font-size="13" x="14.0" y="13.325" font-family="Comic Sans MS" font-weight="bold" font-style="normal" text-decoration="none" family="Comic Sans MS" text-anchor="middle" size="13">60</text></g></g><g id="ProcessOnG1063" transform="matrix(1.0,0.0,0.0,1.0,173.5,193.0)" opacity="1.0"><path id="ProcessOnPath1064" d="M0.0 4.0Q0.0 0.0 4.0 0.0L46.0 0.0Q50.0 0.0 50.0 4.0L50.0 46.0Q50.0 50.0 46.0 50.0L4.0 50.0Q0.0 50.0 0.0 46.0Z" stroke="#ffcc99" stroke-width="2.0" stroke-dasharray="none" opacity="1.0" fill="#ff66ff"/><g id="ProcessOnG1065" transform="matrix(1.0,0.0,0.0,1.0,10.0,16.875)"><text id="ProcessOnText1066" fill="#000000" font-size="13" x="14.0" y="13.325" font-family="Comic Sans MS" font-weight="bold" font-style="normal" text-decoration="none" family="Comic Sans MS" text-anchor="middle" size="13">12</text></g></g><g id="ProcessOnG1067" transform="matrix(1.0,0.0,0.0,1.0,223.5,193.0)" opacity="1.0"><path id="ProcessOnPath1068" d="M0.0 4.0Q0.0 0.0 4.0 0.0L46.0 0.0Q50.0 0.0 50.0 4.0L50.0 46.0Q50.0 50.0 46.0 50.0L4.0 50.0Q0.0 50.0 0.0 46.0Z" stroke="#ffcc99" stroke-width="2.0" stroke-dasharray="none" opacity="1.0" fill="#ffff66"/><g id="ProcessOnG1069" transform="matrix(1.0,0.0,0.0,1.0,10.0,16.875)"><text id="ProcessOnText1070" fill="#000000" font-size="13" x="14.0" y="13.325" font-family="Comic Sans MS" font-weight="bold" font-style="normal" text-decoration="none" family="Comic Sans MS" text-anchor="middle" size="13">42</text></g></g><g id="ProcessOnG1071" transform="matrix(1.0,0.0,0.0,1.0,273.5,193.0)" opacity="1.0"><path id="ProcessOnPath1072" d="M0.0 4.0Q0.0 0.0 4.0 0.0L46.0 0.0Q50.0 0.0 50.0 4.0L50.0 46.0Q50.0 50.0 46.0 50.0L4.0 50.0Q0.0 50.0 0.0 46.0Z" stroke="#ffcc99" stroke-width="2.0" stroke-dasharray="none" opacity="1.0" fill="#66ff66"/><g id="ProcessOnG1073" transform="matrix(1.0,0.0,0.0,1.0,10.0,16.875)"><text id="ProcessOnText1074" fill="#000000" font-size="13" x="14.0" y="13.325" font-family="Comic Sans MS" font-weight="bold" font-style="normal" text-decoration="none" family="Comic Sans MS" text-anchor="middle" size="13">93</text></g></g><g id="ProcessOnG1075" transform="matrix(1.0,0.0,0.0,1.0,323.5,193.0)" opacity="1.0"><path id="ProcessOnPath1076" d="M0.0 4.0Q0.0 0.0 4.0 0.0L46.0 0.0Q50.0 0.0 50.0 4.0L50.0 46.0Q50.0 50.0 46.0 50.0L4.0 50.0Q0.0 50.0 0.0 46.0Z" stroke="#ffcc99" stroke-width="2.0" stroke-dasharray="none" opacity="1.0" fill="#99ccff"/><g id="ProcessOnG1077" transform="matrix(1.0,0.0,0.0,1.0,10.0,16.875)"><text id="ProcessOnText1078" fill="#000000" font-size="13" x="14.0" y="13.325" font-family="Comic Sans MS" font-weight="bold" font-style="normal" text-decoration="none" family="Comic Sans MS" text-anchor="middle" size="13">68</text></g></g><g id="ProcessOnG1079" transform="matrix(1.0,0.0,0.0,1.0,373.5,193.0)" opacity="1.0"><path id="ProcessOnPath1080" d="M0.0 4.0Q0.0 0.0 4.0 0.0L46.0 0.0Q50.0 0.0 50.0 4.0L50.0 46.0Q50.0 50.0 46.0 50.0L4.0 50.0Q0.0 50.0 0.0 46.0Z" stroke="#ffcc99" stroke-width="2.0" stroke-dasharray="none" opacity="1.0" fill="#ff66ff"/><g id="ProcessOnG1081" transform="matrix(1.0,0.0,0.0,1.0,10.0,16.875)"><text id="ProcessOnText1082" fill="#000000" font-size="13" x="14.0" y="13.325" font-family="Comic Sans MS" font-weight="bold" font-style="normal" text-decoration="none" family="Comic Sans MS" text-anchor="middle" size="13">85</text></g></g><g id="ProcessOnG1083" transform="matrix(1.0,0.0,0.0,1.0,423.5,193.0)" opacity="1.0"><path id="ProcessOnPath1084" d="M0.0 4.0Q0.0 0.0 4.0 0.0L46.0 0.0Q50.0 0.0 50.0 4.0L50.0 46.0Q50.0 50.0 46.0 50.0L4.0 50.0Q0.0 50.0 0.0 46.0Z" stroke="#ffcc99" stroke-width="2.0" stroke-dasharray="none" opacity="1.0" fill="#ffff66"/><g id="ProcessOnG1085" transform="matrix(1.0,0.0,0.0,1.0,10.0,16.875)"><text id="ProcessOnText1086" fill="#000000" font-size="13" x="14.0" y="13.325" font-family="Comic Sans MS" font-weight="bold" font-style="normal" text-decoration="none" family="Comic Sans MS" text-anchor="middle" size="13">80</text></g></g><g id="ProcessOnG1087" transform="matrix(1.0,0.0,0.0,1.0,23.5,24.0)" opacity="1.0"><path id="ProcessOnPath1088" d="M0.0 0.0L131.0 0.0L131.0 23.0L0.0 23.0Z" stroke="none" stroke-width="0.0" stroke-dasharray="none" opacity="1.0" fill="none"/><g id="ProcessOnG1089" transform="matrix(1.0,0.0,0.0,1.0,0.0,0.25)"><text id="ProcessOnText1090" fill="#ff6666" font-size="18" x="0.0" y="18.45" font-family="微软雅黑" font-weight="bold" font-style="normal" text-decoration="none" family="微软雅黑" text-anchor="start" size="18">h=4</text></g></g><g id="ProcessOnG1091" transform="matrix(1.0,0.0,0.0,1.0,23.5,156.0)" opacity="1.0"><path id="ProcessOnPath1092" d="M0.0 0.0L323.0 0.0L323.0 37.0L0.0 37.0Z" stroke="none" stroke-width="0.0" stroke-dasharray="none" opacity="1.0" fill="none"/><g id="ProcessOnG1093" transform="matrix(1.0,0.0,0.0,1.0,0.0,7.25)"><text id="ProcessOnText1094" fill="#ff6666" font-size="18" x="0.0" y="18.45" font-family="微软雅黑" font-weight="bold" font-style="normal" text-decoration="none" family="微软雅黑" text-anchor="start" size="18">分别对四个小组进行插入排序</text></g></g><g id="ProcessOnG1095" transform="matrix(1.0,0.0,0.0,1.0,23.5,274.0)" opacity="1.0"><path id="ProcessOnPath1096" d="M0.0 4.0Q0.0 0.0 4.0 0.0L46.0 0.0Q50.0 0.0 50.0 4.0L50.0 46.0Q50.0 50.0 46.0 50.0L4.0 50.0Q0.0 50.0 0.0 46.0Z" stroke="#ffcc99" stroke-width="2.0" stroke-dasharray="none" opacity="1.0" fill="#ffff66"/><g id="ProcessOnG1097" transform="matrix(1.0,0.0,0.0,1.0,10.0,16.875)"><text id="ProcessOnText1098" fill="#000000" font-size="13" x="14.0" y="13.325" font-family="Comic Sans MS" font-weight="bold" font-style="normal" text-decoration="none" family="Comic Sans MS" text-anchor="middle" size="13">10</text></g></g><g id="ProcessOnG1099" transform="matrix(1.0,0.0,0.0,1.0,73.5,274.0)" opacity="1.0"><path id="ProcessOnPath1100" d="M0.0 4.0Q0.0 0.0 4.0 0.0L46.0 0.0Q50.0 0.0 50.0 4.0L50.0 46.0Q50.0 50.0 46.0 50.0L4.0 50.0Q0.0 50.0 0.0 46.0Z" stroke="#ffcc99" stroke-width="2.0" stroke-dasharray="none" opacity="1.0" fill="#66ff66"/><g id="ProcessOnG1101" transform="matrix(1.0,0.0,0.0,1.0,10.0,16.875)"><text id="ProcessOnText1102" fill="#000000" font-size="13" x="14.0" y="13.325" font-family="Comic Sans MS" font-weight="bold" font-style="normal" text-decoration="none" family="Comic Sans MS" text-anchor="middle" size="13">30</text></g></g><g id="ProcessOnG1103" transform="matrix(1.0,0.0,0.0,1.0,123.5,274.0)" opacity="1.0"><path id="ProcessOnPath1104" d="M0.0 4.0Q0.0 0.0 4.0 0.0L46.0 0.0Q50.0 0.0 50.0 4.0L50.0 46.0Q50.0 50.0 46.0 50.0L4.0 50.0Q0.0 50.0 0.0 46.0Z" stroke="#ffcc99" stroke-width="2.0" stroke-dasharray="none" opacity="1.0" fill="#ffff66"/><g id="ProcessOnG1105" transform="matrix(1.0,0.0,0.0,1.0,10.0,16.875)"><text id="ProcessOnText1106" fill="#000000" font-size="13" x="14.0" y="13.325" font-family="Comic Sans MS" font-weight="bold" font-style="normal" text-decoration="none" family="Comic Sans MS" text-anchor="middle" size="13">60</text></g></g><g id="ProcessOnG1107" transform="matrix(1.0,0.0,0.0,1.0,173.5,274.0)" opacity="1.0"><path id="ProcessOnPath1108" d="M0.0 4.0Q0.0 0.0 4.0 0.0L46.0 0.0Q50.0 0.0 50.0 4.0L50.0 46.0Q50.0 50.0 46.0 50.0L4.0 50.0Q0.0 50.0 0.0 46.0Z" stroke="#ffcc99" stroke-width="2.0" stroke-dasharray="none" opacity="1.0" fill="#66ff66"/><g id="ProcessOnG1109" transform="matrix(1.0,0.0,0.0,1.0,10.0,16.875)"><text id="ProcessOnText1110" fill="#000000" font-size="13" x="14.0" y="13.325" font-family="Comic Sans MS" font-weight="bold" font-style="normal" text-decoration="none" family="Comic Sans MS" text-anchor="middle" size="13">12</text></g></g><g id="ProcessOnG1111" transform="matrix(1.0,0.0,0.0,1.0,223.5,274.0)" opacity="1.0"><path id="ProcessOnPath1112" d="M0.0 4.0Q0.0 0.0 4.0 0.0L46.0 0.0Q50.0 0.0 50.0 4.0L50.0 46.0Q50.0 50.0 46.0 50.0L4.0 50.0Q0.0 50.0 0.0 46.0Z" stroke="#ffcc99" stroke-width="2.0" stroke-dasharray="none" opacity="1.0" fill="#ffff66"/><g id="ProcessOnG1113" transform="matrix(1.0,0.0,0.0,1.0,10.0,16.875)"><text id="ProcessOnText1114" fill="#000000" font-size="13" x="14.0" y="13.325" font-family="Comic Sans MS" font-weight="bold" font-style="normal" text-decoration="none" family="Comic Sans MS" text-anchor="middle" size="13">42</text></g></g><g id="ProcessOnG1115" transform="matrix(1.0,0.0,0.0,1.0,273.5,274.0)" opacity="1.0"><path id="ProcessOnPath1116" d="M0.0 4.0Q0.0 0.0 4.0 0.0L46.0 0.0Q50.0 0.0 50.0 4.0L50.0 46.0Q50.0 50.0 46.0 50.0L4.0 50.0Q0.0 50.0 0.0 46.0Z" stroke="#ffcc99" stroke-width="2.0" stroke-dasharray="none" opacity="1.0" fill="#66ff66"/><g id="ProcessOnG1117" transform="matrix(1.0,0.0,0.0,1.0,10.0,16.875)"><text id="ProcessOnText1118" fill="#000000" font-size="13" x="14.0" y="13.325" font-family="Comic Sans MS" font-weight="bold" font-style="normal" text-decoration="none" family="Comic Sans MS" text-anchor="middle" size="13">93</text></g></g><g id="ProcessOnG1119" transform="matrix(1.0,0.0,0.0,1.0,323.5,274.0)" opacity="1.0"><path id="ProcessOnPath1120" d="M0.0 4.0Q0.0 0.0 4.0 0.0L46.0 0.0Q50.0 0.0 50.0 4.0L50.0 46.0Q50.0 50.0 46.0 50.0L4.0 50.0Q0.0 50.0 0.0 46.0Z" stroke="#ffcc99" stroke-width="2.0" stroke-dasharray="none" opacity="1.0" fill="#ffff66"/><g id="ProcessOnG1121" transform="matrix(1.0,0.0,0.0,1.0,10.0,16.875)"><text id="ProcessOnText1122" fill="#000000" font-size="13" x="14.0" y="13.325" font-family="Comic Sans MS" font-weight="bold" font-style="normal" text-decoration="none" family="Comic Sans MS" text-anchor="middle" size="13">68</text></g></g><g id="ProcessOnG1123" transform="matrix(1.0,0.0,0.0,1.0,373.5,274.0)" opacity="1.0"><path id="ProcessOnPath1124" d="M0.0 4.0Q0.0 0.0 4.0 0.0L46.0 0.0Q50.0 0.0 50.0 4.0L50.0 46.0Q50.0 50.0 46.0 50.0L4.0 50.0Q0.0 50.0 0.0 46.0Z" stroke="#ffcc99" stroke-width="2.0" stroke-dasharray="none" opacity="1.0" fill="#66ff66"/><g id="ProcessOnG1125" transform="matrix(1.0,0.0,0.0,1.0,10.0,16.875)"><text id="ProcessOnText1126" fill="#000000" font-size="13" x="14.0" y="13.325" font-family="Comic Sans MS" font-weight="bold" font-style="normal" text-decoration="none" family="Comic Sans MS" text-anchor="middle" size="13">85</text></g></g><g id="ProcessOnG1127" transform="matrix(1.0,0.0,0.0,1.0,423.5,274.0)" opacity="1.0"><path id="ProcessOnPath1128" d="M0.0 4.0Q0.0 0.0 4.0 0.0L46.0 0.0Q50.0 0.0 50.0 4.0L50.0 46.0Q50.0 50.0 46.0 50.0L4.0 50.0Q0.0 50.0 0.0 46.0Z" stroke="#ffcc99" stroke-width="2.0" stroke-dasharray="none" opacity="1.0" fill="#ffff66"/><g id="ProcessOnG1129" transform="matrix(1.0,0.0,0.0,1.0,10.0,16.875)"><text id="ProcessOnText1130" fill="#000000" font-size="13" x="14.0" y="13.325" font-family="Comic Sans MS" font-weight="bold" font-style="normal" text-decoration="none" family="Comic Sans MS" text-anchor="middle" size="13">80</text></g></g><g id="ProcessOnG1131" transform="matrix(1.0,0.0,0.0,1.0,23.5,240.0)" opacity="1.0"><path id="ProcessOnPath1132" d="M0.0 0.0L160.0 0.0L160.0 40.0L0.0 40.0Z" stroke="none" stroke-width="0.0" stroke-dasharray="none" opacity="1.0" fill="none"/><g id="ProcessOnG1133" transform="matrix(1.0,0.0,0.0,1.0,0.0,8.75)"><text id="ProcessOnText1134" fill="#ff6666" font-size="18" x="0.0" y="18.45" font-family="微软雅黑" font-weight="bold" font-style="normal" text-decoration="none" family="微软雅黑" text-anchor="start" size="18">h=2</text></g></g><g id="ProcessOnG1135" transform="matrix(1.0,0.0,0.0,1.0,23.5,324.0)" opacity="1.0"><path id="ProcessOnPath1136" d="M0.0 0.0L323.0 0.0L323.0 37.0L0.0 37.0Z" stroke="none" stroke-width="0.0" stroke-dasharray="none" opacity="1.0" fill="none"/><g id="ProcessOnG1137" transform="matrix(1.0,0.0,0.0,1.0,0.0,7.25)"><text id="ProcessOnText1138" fill="#ff6666" font-size="18" x="0.0" y="18.45" font-family="微软雅黑" font-weight="bold" font-style="normal" text-decoration="none" family="微软雅黑" text-anchor="start" size="18">分别对两个小组进行插入排序</text></g></g><g id="ProcessOnG1139" transform="matrix(1.0,0.0,0.0,1.0,23.5,361.0)" opacity="1.0"><path id="ProcessOnPath1140" d="M0.0 4.0Q0.0 0.0 4.0 0.0L46.0 0.0Q50.0 0.0 50.0 4.0L50.0 46.0Q50.0 50.0 46.0 50.0L4.0 50.0Q0.0 50.0 0.0 46.0Z" stroke="#ffcc99" stroke-width="2.0" stroke-dasharray="none" opacity="1.0" fill="#ffff66"/><g id="ProcessOnG1141" transform="matrix(1.0,0.0,0.0,1.0,10.0,16.875)"><text id="ProcessOnText1142" fill="#000000" font-size="13" x="14.0" y="13.325" font-family="Comic Sans MS" font-weight="bold" font-style="normal" text-decoration="none" family="Comic Sans MS" text-anchor="middle" size="13">10</text></g></g><g id="ProcessOnG1143" transform="matrix(1.0,0.0,0.0,1.0,73.5,361.0)" opacity="1.0"><path id="ProcessOnPath1144" d="M0.0 4.0Q0.0 0.0 4.0 0.0L46.0 0.0Q50.0 0.0 50.0 4.0L50.0 46.0Q50.0 50.0 46.0 50.0L4.0 50.0Q0.0 50.0 0.0 46.0Z" stroke="#ffcc99" stroke-width="2.0" stroke-dasharray="none" opacity="1.0" fill="#66ff66"/><g id="ProcessOnG1145" transform="matrix(1.0,0.0,0.0,1.0,10.0,16.875)"><text id="ProcessOnText1146" fill="#000000" font-size="13" x="14.0" y="13.325" font-family="Comic Sans MS" font-weight="bold" font-style="normal" text-decoration="none" family="Comic Sans MS" text-anchor="middle" size="13">12</text></g></g><g id="ProcessOnG1147" transform="matrix(1.0,0.0,0.0,1.0,123.5,361.0)" opacity="1.0"><path id="ProcessOnPath1148" d="M0.0 4.0Q0.0 0.0 4.0 0.0L46.0 0.0Q50.0 0.0 50.0 4.0L50.0 46.0Q50.0 50.0 46.0 50.0L4.0 50.0Q0.0 50.0 0.0 46.0Z" stroke="#ffcc99" stroke-width="2.0" stroke-dasharray="none" opacity="1.0" fill="#ffff66"/><g id="ProcessOnG1149" transform="matrix(1.0,0.0,0.0,1.0,10.0,16.875)"><text id="ProcessOnText1150" fill="#000000" font-size="13" x="14.0" y="13.325" font-family="Comic Sans MS" font-weight="bold" font-style="normal" text-decoration="none" family="Comic Sans MS" text-anchor="middle" size="13">42</text></g></g><g id="ProcessOnG1151" transform="matrix(1.0,0.0,0.0,1.0,173.5,361.0)" opacity="1.0"><path id="ProcessOnPath1152" d="M0.0 4.0Q0.0 0.0 4.0 0.0L46.0 0.0Q50.0 0.0 50.0 4.0L50.0 46.0Q50.0 50.0 46.0 50.0L4.0 50.0Q0.0 50.0 0.0 46.0Z" stroke="#ffcc99" stroke-width="2.0" stroke-dasharray="none" opacity="1.0" fill="#66ff66"/><g id="ProcessOnG1153" transform="matrix(1.0,0.0,0.0,1.0,10.0,16.875)"><text id="ProcessOnText1154" fill="#000000" font-size="13" x="14.0" y="13.325" font-family="Comic Sans MS" font-weight="bold" font-style="normal" text-decoration="none" family="Comic Sans MS" text-anchor="middle" size="13">30</text></g></g><g id="ProcessOnG1155" transform="matrix(1.0,0.0,0.0,1.0,223.5,361.0)" opacity="1.0"><path id="ProcessOnPath1156" d="M0.0 4.0Q0.0 0.0 4.0 0.0L46.0 0.0Q50.0 0.0 50.0 4.0L50.0 46.0Q50.0 50.0 46.0 50.0L4.0 50.0Q0.0 50.0 0.0 46.0Z" stroke="#ffcc99" stroke-width="2.0" stroke-dasharray="none" opacity="1.0" fill="#ffff66"/><g id="ProcessOnG1157" transform="matrix(1.0,0.0,0.0,1.0,10.0,16.875)"><text id="ProcessOnText1158" fill="#000000" font-size="13" x="14.0" y="13.325" font-family="Comic Sans MS" font-weight="bold" font-style="normal" text-decoration="none" family="Comic Sans MS" text-anchor="middle" size="13">60</text></g></g><g id="ProcessOnG1159" transform="matrix(1.0,0.0,0.0,1.0,273.5,361.0)" opacity="1.0"><path id="ProcessOnPath1160" d="M0.0 4.0Q0.0 0.0 4.0 0.0L46.0 0.0Q50.0 0.0 50.0 4.0L50.0 46.0Q50.0 50.0 46.0 50.0L4.0 50.0Q0.0 50.0 0.0 46.0Z" stroke="#ffcc99" stroke-width="2.0" stroke-dasharray="none" opacity="1.0" fill="#66ff66"/><g id="ProcessOnG1161" transform="matrix(1.0,0.0,0.0,1.0,10.0,16.875)"><text id="ProcessOnText1162" fill="#000000" font-size="13" x="14.0" y="13.325" font-family="Comic Sans MS" font-weight="bold" font-style="normal" text-decoration="none" family="Comic Sans MS" text-anchor="middle" size="13">85</text></g></g><g id="ProcessOnG1163" transform="matrix(1.0,0.0,0.0,1.0,323.5,361.0)" opacity="1.0"><path id="ProcessOnPath1164" d="M0.0 4.0Q0.0 0.0 4.0 0.0L46.0 0.0Q50.0 0.0 50.0 4.0L50.0 46.0Q50.0 50.0 46.0 50.0L4.0 50.0Q0.0 50.0 0.0 46.0Z" stroke="#ffcc99" stroke-width="2.0" stroke-dasharray="none" opacity="1.0" fill="#ffff66"/><g id="ProcessOnG1165" transform="matrix(1.0,0.0,0.0,1.0,10.0,16.875)"><text id="ProcessOnText1166" fill="#000000" font-size="13" x="14.0" y="13.325" font-family="Comic Sans MS" font-weight="bold" font-style="normal" text-decoration="none" family="Comic Sans MS" text-anchor="middle" size="13">68</text></g></g><g id="ProcessOnG1167" transform="matrix(1.0,0.0,0.0,1.0,373.5,361.0)" opacity="1.0"><path id="ProcessOnPath1168" d="M0.0 4.0Q0.0 0.0 4.0 0.0L46.0 0.0Q50.0 0.0 50.0 4.0L50.0 46.0Q50.0 50.0 46.0 50.0L4.0 50.0Q0.0 50.0 0.0 46.0Z" stroke="#ffcc99" stroke-width="2.0" stroke-dasharray="none" opacity="1.0" fill="#66ff66"/><g id="ProcessOnG1169" transform="matrix(1.0,0.0,0.0,1.0,10.0,16.875)"><text id="ProcessOnText1170" fill="#000000" font-size="13" x="14.0" y="13.325" font-family="Comic Sans MS" font-weight="bold" font-style="normal" text-decoration="none" family="Comic Sans MS" text-anchor="middle" size="13">93</text></g></g><g id="ProcessOnG1171" transform="matrix(1.0,0.0,0.0,1.0,423.5,361.0)" opacity="1.0"><path id="ProcessOnPath1172" d="M0.0 4.0Q0.0 0.0 4.0 0.0L46.0 0.0Q50.0 0.0 50.0 4.0L50.0 46.0Q50.0 50.0 46.0 50.0L4.0 50.0Q0.0 50.0 0.0 46.0Z" stroke="#ffcc99" stroke-width="2.0" stroke-dasharray="none" opacity="1.0" fill="#ffff66"/><g id="ProcessOnG1173" transform="matrix(1.0,0.0,0.0,1.0,10.0,16.875)"><text id="ProcessOnText1174" fill="#000000" font-size="13" x="14.0" y="13.325" font-family="Comic Sans MS" font-weight="bold" font-style="normal" text-decoration="none" family="Comic Sans MS" text-anchor="middle" size="13">80</text></g></g><g id="ProcessOnG1175" transform="matrix(1.0,0.0,0.0,1.0,23.5,448.0)" opacity="1.0"><path id="ProcessOnPath1176" d="M0.0 4.0Q0.0 0.0 4.0 0.0L46.0 0.0Q50.0 0.0 50.0 4.0L50.0 46.0Q50.0 50.0 46.0 50.0L4.0 50.0Q0.0 50.0 0.0 46.0Z" stroke="#ffcc99" stroke-width="2.0" stroke-dasharray="none" opacity="1.0" fill="#ffff66"/><g id="ProcessOnG1177" transform="matrix(1.0,0.0,0.0,1.0,10.0,16.875)"><text id="ProcessOnText1178" fill="#000000" font-size="13" x="14.0" y="13.325" font-family="Comic Sans MS" font-weight="bold" font-style="normal" text-decoration="none" family="Comic Sans MS" text-anchor="middle" size="13">10</text></g></g><g id="ProcessOnG1179" transform="matrix(1.0,0.0,0.0,1.0,73.5,448.0)" opacity="1.0"><path id="ProcessOnPath1180" d="M0.0 4.0Q0.0 0.0 4.0 0.0L46.0 0.0Q50.0 0.0 50.0 4.0L50.0 46.0Q50.0 50.0 46.0 50.0L4.0 50.0Q0.0 50.0 0.0 46.0Z" stroke="#ffcc99" stroke-width="2.0" stroke-dasharray="none" opacity="1.0" fill="#ffff66"/><g id="ProcessOnG1181" transform="matrix(1.0,0.0,0.0,1.0,10.0,16.875)"><text id="ProcessOnText1182" fill="#000000" font-size="13" x="14.0" y="13.325" font-family="Comic Sans MS" font-weight="bold" font-style="normal" text-decoration="none" family="Comic Sans MS" text-anchor="middle" size="13">12</text></g></g><g id="ProcessOnG1183" transform="matrix(1.0,0.0,0.0,1.0,123.5,448.0)" opacity="1.0"><path id="ProcessOnPath1184" d="M0.0 4.0Q0.0 0.0 4.0 0.0L46.0 0.0Q50.0 0.0 50.0 4.0L50.0 46.0Q50.0 50.0 46.0 50.0L4.0 50.0Q0.0 50.0 0.0 46.0Z" stroke="#ffcc99" stroke-width="2.0" stroke-dasharray="none" opacity="1.0" fill="#ffff66"/><g id="ProcessOnG1185" transform="matrix(1.0,0.0,0.0,1.0,10.0,16.875)"><text id="ProcessOnText1186" fill="#000000" font-size="13" x="14.0" y="13.325" font-family="Comic Sans MS" font-weight="bold" font-style="normal" text-decoration="none" family="Comic Sans MS" text-anchor="middle" size="13">42</text></g></g><g id="ProcessOnG1187" transform="matrix(1.0,0.0,0.0,1.0,173.5,448.0)" opacity="1.0"><path id="ProcessOnPath1188" d="M0.0 4.0Q0.0 0.0 4.0 0.0L46.0 0.0Q50.0 0.0 50.0 4.0L50.0 46.0Q50.0 50.0 46.0 50.0L4.0 50.0Q0.0 50.0 0.0 46.0Z" stroke="#ffcc99" stroke-width="2.0" stroke-dasharray="none" opacity="1.0" fill="#ffff66"/><g id="ProcessOnG1189" transform="matrix(1.0,0.0,0.0,1.0,10.0,16.875)"><text id="ProcessOnText1190" fill="#000000" font-size="13" x="14.0" y="13.325" font-family="Comic Sans MS" font-weight="bold" font-style="normal" text-decoration="none" family="Comic Sans MS" text-anchor="middle" size="13">30</text></g></g><g id="ProcessOnG1191" transform="matrix(1.0,0.0,0.0,1.0,223.5,448.0)" opacity="1.0"><path id="ProcessOnPath1192" d="M0.0 4.0Q0.0 0.0 4.0 0.0L46.0 0.0Q50.0 0.0 50.0 4.0L50.0 46.0Q50.0 50.0 46.0 50.0L4.0 50.0Q0.0 50.0 0.0 46.0Z" stroke="#ffcc99" stroke-width="2.0" stroke-dasharray="none" opacity="1.0" fill="#ffff66"/><g id="ProcessOnG1193" transform="matrix(1.0,0.0,0.0,1.0,10.0,16.875)"><text id="ProcessOnText1194" fill="#000000" font-size="13" x="14.0" y="13.325" font-family="Comic Sans MS" font-weight="bold" font-style="normal" text-decoration="none" family="Comic Sans MS" text-anchor="middle" size="13">60</text></g></g><g id="ProcessOnG1195" transform="matrix(1.0,0.0,0.0,1.0,273.5,448.0)" opacity="1.0"><path id="ProcessOnPath1196" d="M0.0 4.0Q0.0 0.0 4.0 0.0L46.0 0.0Q50.0 0.0 50.0 4.0L50.0 46.0Q50.0 50.0 46.0 50.0L4.0 50.0Q0.0 50.0 0.0 46.0Z" stroke="#ffcc99" stroke-width="2.0" stroke-dasharray="none" opacity="1.0" fill="#ffff66"/><g id="ProcessOnG1197" transform="matrix(1.0,0.0,0.0,1.0,10.0,16.875)"><text id="ProcessOnText1198" fill="#000000" font-size="13" x="14.0" y="13.325" font-family="Comic Sans MS" font-weight="bold" font-style="normal" text-decoration="none" family="Comic Sans MS" text-anchor="middle" size="13">85</text></g></g><g id="ProcessOnG1199" transform="matrix(1.0,0.0,0.0,1.0,323.5,448.0)" opacity="1.0"><path id="ProcessOnPath1200" d="M0.0 4.0Q0.0 0.0 4.0 0.0L46.0 0.0Q50.0 0.0 50.0 4.0L50.0 46.0Q50.0 50.0 46.0 50.0L4.0 50.0Q0.0 50.0 0.0 46.0Z" stroke="#ffcc99" stroke-width="2.0" stroke-dasharray="none" opacity="1.0" fill="#ffff66"/><g id="ProcessOnG1201" transform="matrix(1.0,0.0,0.0,1.0,10.0,16.875)"><text id="ProcessOnText1202" fill="#000000" font-size="13" x="14.0" y="13.325" font-family="Comic Sans MS" font-weight="bold" font-style="normal" text-decoration="none" family="Comic Sans MS" text-anchor="middle" size="13">68</text></g></g><g id="ProcessOnG1203" transform="matrix(1.0,0.0,0.0,1.0,373.5,448.0)" opacity="1.0"><path id="ProcessOnPath1204" d="M0.0 4.0Q0.0 0.0 4.0 0.0L46.0 0.0Q50.0 0.0 50.0 4.0L50.0 46.0Q50.0 50.0 46.0 50.0L4.0 50.0Q0.0 50.0 0.0 46.0Z" stroke="#ffcc99" stroke-width="2.0" stroke-dasharray="none" opacity="1.0" fill="#ffff66"/><g id="ProcessOnG1205" transform="matrix(1.0,0.0,0.0,1.0,10.0,16.875)"><text id="ProcessOnText1206" fill="#000000" font-size="13" x="14.0" y="13.325" font-family="Comic Sans MS" font-weight="bold" font-style="normal" text-decoration="none" family="Comic Sans MS" text-anchor="middle" size="13">93</text></g></g><g id="ProcessOnG1207" transform="matrix(1.0,0.0,0.0,1.0,423.5,448.0)" opacity="1.0"><path id="ProcessOnPath1208" d="M0.0 4.0Q0.0 0.0 4.0 0.0L46.0 0.0Q50.0 0.0 50.0 4.0L50.0 46.0Q50.0 50.0 46.0 50.0L4.0 50.0Q0.0 50.0 0.0 46.0Z" stroke="#ffcc99" stroke-width="2.0" stroke-dasharray="none" opacity="1.0" fill="#ffff66"/><g id="ProcessOnG1209" transform="matrix(1.0,0.0,0.0,1.0,10.0,16.875)"><text id="ProcessOnText1210" fill="#000000" font-size="13" x="14.0" y="13.325" font-family="Comic Sans MS" font-weight="bold" font-style="normal" text-decoration="none" family="Comic Sans MS" text-anchor="middle" size="13">80</text></g></g><g id="ProcessOnG1211" transform="matrix(1.0,0.0,0.0,1.0,23.5,411.0)" opacity="1.0"><path id="ProcessOnPath1212" d="M0.0 0.0L160.0 0.0L160.0 40.0L0.0 40.0Z" stroke="none" stroke-width="0.0" stroke-dasharray="none" opacity="1.0" fill="none"/><g id="ProcessOnG1213" transform="matrix(1.0,0.0,0.0,1.0,0.0,8.75)"><text id="ProcessOnText1214" fill="#ff6666" font-size="18" x="0.0" y="18.45" font-family="微软雅黑" font-weight="bold" font-style="normal" text-decoration="none" family="微软雅黑" text-anchor="start" size="18">h=1</text></g></g><g id="ProcessOnG1215" transform="matrix(1.0,0.0,0.0,1.0,23.5,505.0)" opacity="1.0"><path id="ProcessOnPath1216" d="M0.0 0.0L323.0 0.0L323.0 37.0L0.0 37.0Z" stroke="none" stroke-width="0.0" stroke-dasharray="none" opacity="1.0" fill="none"/><g id="ProcessOnG1217" transform="matrix(1.0,0.0,0.0,1.0,0.0,7.25)"><text id="ProcessOnText1218" fill="#ff6666" font-size="18" x="0.0" y="18.45" font-family="微软雅黑" font-weight="bold" font-style="normal" text-decoration="none" family="微软雅黑" text-anchor="start" size="18">插入排序</text></g></g><g id="ProcessOnG1219" transform="matrix(1.0,0.0,0.0,1.0,23.5,542.0)" opacity="1.0"><path id="ProcessOnPath1220" d="M0.0 4.0Q0.0 0.0 4.0 0.0L46.0 0.0Q50.0 0.0 50.0 4.0L50.0 46.0Q50.0 50.0 46.0 50.0L4.0 50.0Q0.0 50.0 0.0 46.0Z" stroke="#ffcc99" stroke-width="2.0" stroke-dasharray="none" opacity="1.0" fill="#ffff66"/><g id="ProcessOnG1221" transform="matrix(1.0,0.0,0.0,1.0,10.0,16.875)"><text id="ProcessOnText1222" fill="#000000" font-size="13" x="14.0" y="13.325" font-family="Comic Sans MS" font-weight="bold" font-style="normal" text-decoration="none" family="Comic Sans MS" text-anchor="middle" size="13">10</text></g></g><g id="ProcessOnG1223" transform="matrix(1.0,0.0,0.0,1.0,73.5,542.0)" opacity="1.0"><path id="ProcessOnPath1224" d="M0.0 4.0Q0.0 0.0 4.0 0.0L46.0 0.0Q50.0 0.0 50.0 4.0L50.0 46.0Q50.0 50.0 46.0 50.0L4.0 50.0Q0.0 50.0 0.0 46.0Z" stroke="#ffcc99" stroke-width="2.0" stroke-dasharray="none" opacity="1.0" fill="#ffff66"/><g id="ProcessOnG1225" transform="matrix(1.0,0.0,0.0,1.0,10.0,16.875)"><text id="ProcessOnText1226" fill="#000000" font-size="13" x="14.0" y="13.325" font-family="Comic Sans MS" font-weight="bold" font-style="normal" text-decoration="none" family="Comic Sans MS" text-anchor="middle" size="13">12</text></g></g><g id="ProcessOnG1227" transform="matrix(1.0,0.0,0.0,1.0,123.5,542.0)" opacity="1.0"><path id="ProcessOnPath1228" d="M0.0 4.0Q0.0 0.0 4.0 0.0L46.0 0.0Q50.0 0.0 50.0 4.0L50.0 46.0Q50.0 50.0 46.0 50.0L4.0 50.0Q0.0 50.0 0.0 46.0Z" stroke="#ffcc99" stroke-width="2.0" stroke-dasharray="none" opacity="1.0" fill="#ffff66"/><g id="ProcessOnG1229" transform="matrix(1.0,0.0,0.0,1.0,10.0,16.875)"><text id="ProcessOnText1230" fill="#000000" font-size="13" x="14.0" y="13.325" font-family="Comic Sans MS" font-weight="bold" font-style="normal" text-decoration="none" family="Comic Sans MS" text-anchor="middle" size="13">30</text></g></g><g id="ProcessOnG1231" transform="matrix(1.0,0.0,0.0,1.0,173.5,542.0)" opacity="1.0"><path id="ProcessOnPath1232" d="M0.0 4.0Q0.0 0.0 4.0 0.0L46.0 0.0Q50.0 0.0 50.0 4.0L50.0 46.0Q50.0 50.0 46.0 50.0L4.0 50.0Q0.0 50.0 0.0 46.0Z" stroke="#ffcc99" stroke-width="2.0" stroke-dasharray="none" opacity="1.0" fill="#ffff66"/><g id="ProcessOnG1233" transform="matrix(1.0,0.0,0.0,1.0,10.0,16.875)"><text id="ProcessOnText1234" fill="#000000" font-size="13" x="14.0" y="13.325" font-family="Comic Sans MS" font-weight="bold" font-style="normal" text-decoration="none" family="Comic Sans MS" text-anchor="middle" size="13">42</text></g></g><g id="ProcessOnG1235" transform="matrix(1.0,0.0,0.0,1.0,223.5,542.0)" opacity="1.0"><path id="ProcessOnPath1236" d="M0.0 4.0Q0.0 0.0 4.0 0.0L46.0 0.0Q50.0 0.0 50.0 4.0L50.0 46.0Q50.0 50.0 46.0 50.0L4.0 50.0Q0.0 50.0 0.0 46.0Z" stroke="#ffcc99" stroke-width="2.0" stroke-dasharray="none" opacity="1.0" fill="#ffff66"/><g id="ProcessOnG1237" transform="matrix(1.0,0.0,0.0,1.0,10.0,16.875)"><text id="ProcessOnText1238" fill="#000000" font-size="13" x="14.0" y="13.325" font-family="Comic Sans MS" font-weight="bold" font-style="normal" text-decoration="none" family="Comic Sans MS" text-anchor="middle" size="13">60</text></g></g><g id="ProcessOnG1239" transform="matrix(1.0,0.0,0.0,1.0,273.5,542.0)" opacity="1.0"><path id="ProcessOnPath1240" d="M0.0 4.0Q0.0 0.0 4.0 0.0L46.0 0.0Q50.0 0.0 50.0 4.0L50.0 46.0Q50.0 50.0 46.0 50.0L4.0 50.0Q0.0 50.0 0.0 46.0Z" stroke="#ffcc99" stroke-width="2.0" stroke-dasharray="none" opacity="1.0" fill="#ffff66"/><g id="ProcessOnG1241" transform="matrix(1.0,0.0,0.0,1.0,10.0,16.875)"><text id="ProcessOnText1242" fill="#000000" font-size="13" x="14.0" y="13.325" font-family="Comic Sans MS" font-weight="bold" font-style="normal" text-decoration="none" family="Comic Sans MS" text-anchor="middle" size="13">68</text></g></g><g id="ProcessOnG1243" transform="matrix(1.0,0.0,0.0,1.0,323.5,542.0)" opacity="1.0"><path id="ProcessOnPath1244" d="M0.0 4.0Q0.0 0.0 4.0 0.0L46.0 0.0Q50.0 0.0 50.0 4.0L50.0 46.0Q50.0 50.0 46.0 50.0L4.0 50.0Q0.0 50.0 0.0 46.0Z" stroke="#ffcc99" stroke-width="2.0" stroke-dasharray="none" opacity="1.0" fill="#ffff66"/><g id="ProcessOnG1245" transform="matrix(1.0,0.0,0.0,1.0,10.0,16.875)"><text id="ProcessOnText1246" fill="#000000" font-size="13" x="14.0" y="13.325" font-family="Comic Sans MS" font-weight="bold" font-style="normal" text-decoration="none" family="Comic Sans MS" text-anchor="middle" size="13">80</text></g></g><g id="ProcessOnG1247" transform="matrix(1.0,0.0,0.0,1.0,373.5,542.0)" opacity="1.0"><path id="ProcessOnPath1248" d="M0.0 4.0Q0.0 0.0 4.0 0.0L46.0 0.0Q50.0 0.0 50.0 4.0L50.0 46.0Q50.0 50.0 46.0 50.0L4.0 50.0Q0.0 50.0 0.0 46.0Z" stroke="#ffcc99" stroke-width="2.0" stroke-dasharray="none" opacity="1.0" fill="#ffff66"/><g id="ProcessOnG1249" transform="matrix(1.0,0.0,0.0,1.0,10.0,16.875)"><text id="ProcessOnText1250" fill="#000000" font-size="13" x="14.0" y="13.325" font-family="Comic Sans MS" font-weight="bold" font-style="normal" text-decoration="none" family="Comic Sans MS" text-anchor="middle" size="13">85</text></g></g><g id="ProcessOnG1251" transform="matrix(1.0,0.0,0.0,1.0,423.5,542.0)" opacity="1.0"><path id="ProcessOnPath1252" d="M0.0 4.0Q0.0 0.0 4.0 0.0L46.0 0.0Q50.0 0.0 50.0 4.0L50.0 46.0Q50.0 50.0 46.0 50.0L4.0 50.0Q0.0 50.0 0.0 46.0Z" stroke="#ffcc99" stroke-width="2.0" stroke-dasharray="none" opacity="1.0" fill="#ffff66"/><g id="ProcessOnG1253" transform="matrix(1.0,0.0,0.0,1.0,10.0,16.875)"><text id="ProcessOnText1254" fill="#000000" font-size="13" x="14.0" y="13.325" font-family="Comic Sans MS" font-weight="bold" font-style="normal" text-decoration="none" family="Comic Sans MS" text-anchor="middle" size="13">93</text></g></g></g></g></svg>