<svg xmlns="http://www.w3.org/2000/svg" xmlns:xlink="http://www.w3.org/1999/xlink" id="processonSvg1000" viewBox="5.0 -5.0 390.0 714.0" width="390.0" height="714.0"><defs id="ProcessOnDefs1001"><marker id="ProcessOnMarker1063" markerUnits="userSpaceOnUse" orient="auto" markerWidth="16.23606797749979" markerHeight="10.550836550532098" viewBox="-1.0 -1.3763819204711736 16.23606797749979 10.550836550532098" refX="-1.0" refY="3.8990363547948754"><path id="ProcessOnPath1064" d="M12.0 3.8990363547948754L0.0 7.798072709589751V0.0Z" stroke="#323232" stroke-width="2.0" fill="#323232" transform="matrix(1.0,0.0,0.0,1.0,0.0,0.0)"/></marker><marker id="ProcessOnMarker1067" markerUnits="userSpaceOnUse" orient="auto" markerWidth="16.23606797749979" markerHeight="10.550836550532098" viewBox="-1.0 -1.3763819204711736 16.23606797749979 10.550836550532098" refX="-1.0" refY="3.8990363547948754"><path id="ProcessOnPath1068" d="M12.0 3.8990363547948754L0.0 7.798072709589751V0.0Z" stroke="#323232" stroke-width="2.0" fill="#323232" transform="matrix(1.0,0.0,0.0,1.0,0.0,0.0)"/></marker><marker id="ProcessOnMarker1127" markerUnits="userSpaceOnUse" orient="auto" markerWidth="16.23606797749979" markerHeight="10.550836550532098" viewBox="-1.0 -1.3763819204711736 16.23606797749979 10.550836550532098" refX="-1.0" refY="3.8990363547948754"><path id="ProcessOnPath1128" d="M12.0 3.8990363547948754L0.0 7.798072709589751V0.0Z" stroke="#323232" stroke-width="2.0" fill="#323232" transform="matrix(1.0,0.0,0.0,1.0,0.0,0.0)"/></marker><marker id="ProcessOnMarker1131" markerUnits="userSpaceOnUse" orient="auto" markerWidth="16.23606797749979" markerHeight="10.550836550532098" viewBox="-1.0 -1.3763819204711736 16.23606797749979 10.550836550532098" refX="-1.0" refY="3.8990363547948754"><path id="ProcessOnPath1132" d="M12.0 3.8990363547948754L0.0 7.798072709589751V0.0Z" stroke="#323232" stroke-width="2.0" fill="#323232" transform="matrix(1.0,0.0,0.0,1.0,0.0,0.0)"/></marker><marker id="ProcessOnMarker1191" markerUnits="userSpaceOnUse" orient="auto" markerWidth="16.23606797749979" markerHeight="10.550836550532098" viewBox="-1.0 -1.3763819204711736 16.23606797749979 10.550836550532098" refX="-1.0" refY="3.8990363547948754"><path id="ProcessOnPath1192" d="M12.0 3.8990363547948754L0.0 7.798072709589751V0.0Z" stroke="#323232" stroke-width="2.0" fill="#323232" transform="matrix(1.0,0.0,0.0,1.0,0.0,0.0)"/></marker><marker id="ProcessOnMarker1195" markerUnits="userSpaceOnUse" orient="auto" markerWidth="16.23606797749979" markerHeight="10.550836550532098" viewBox="-1.0 -1.3763819204711736 16.23606797749979 10.550836550532098" refX="-1.0" refY="3.8990363547948754"><path id="ProcessOnPath1196" d="M12.0 3.8990363547948754L0.0 7.798072709589751V0.0Z" stroke="#323232" stroke-width="2.0" fill="#323232" transform="matrix(1.0,0.0,0.0,1.0,0.0,0.0)"/></marker><marker id="ProcessOnMarker1227" markerUnits="userSpaceOnUse" orient="auto" markerWidth="16.23606797749979" markerHeight="10.550836550532098" viewBox="-1.0 -1.3763819204711736 16.23606797749979 10.550836550532098" refX="-1.0" refY="3.8990363547948754"><path id="ProcessOnPath1228" d="M12.0 3.8990363547948754L0.0 7.798072709589751V0.0Z" stroke="#323232" stroke-width="2.0" fill="#323232" transform="matrix(1.0,0.0,0.0,1.0,0.0,0.0)"/></marker><marker id="ProcessOnMarker1231" markerUnits="userSpaceOnUse" orient="auto" markerWidth="16.23606797749979" markerHeight="10.550836550532098" viewBox="-1.0 -1.3763819204711736 16.23606797749979 10.550836550532098" refX="-1.0" refY="3.8990363547948754"><path id="ProcessOnPath1232" d="M12.0 3.8990363547948754L0.0 7.798072709589751V0.0Z" stroke="#323232" stroke-width="2.0" fill="#323232" transform="matrix(1.0,0.0,0.0,1.0,0.0,0.0)"/></marker></defs><g id="ProcessOnG1002"><path id="ProcessOnPath1003" d="M5.0 -5.0H395.0V709.0H5.0V-5.0Z" fill="none"/><g id="ProcessOnG1004"><g id="ProcessOnG1005" transform="matrix(1.0,0.0,0.0,1.0,25.0,15.0)" opacity="1.0"><path id="ProcessOnPath1006" d="M0.0 4.0Q0.0 0.0 4.0 0.0L46.0 0.0Q50.0 0.0 50.0 4.0L50.0 46.0Q50.0 50.0 46.0 50.0L4.0 50.0Q0.0 50.0 0.0 46.0Z" stroke="#ffcc99" stroke-width="2.0" stroke-dasharray="none" opacity="1.0" fill="#ffff99"/><g id="ProcessOnG1007" transform="matrix(1.0,0.0,0.0,1.0,10.0,16.875)"><text id="ProcessOnText1008" fill="#000000" font-size="13" x="14.0" y="13.325" font-family="微软雅黑" font-weight="bold" font-style="normal" text-decoration="none" family="微软雅黑" text-anchor="middle" size="13">42</text></g></g><g id="ProcessOnG1009" transform="matrix(1.0,0.0,0.0,1.0,75.0,15.0)" opacity="1.0"><path id="ProcessOnPath1010" d="M0.0 4.0Q0.0 0.0 4.0 0.0L46.0 0.0Q50.0 0.0 50.0 4.0L50.0 46.0Q50.0 50.0 46.0 50.0L4.0 50.0Q0.0 50.0 0.0 46.0Z" stroke="#ffcc99" stroke-width="2.0" stroke-dasharray="none" opacity="1.0" fill="#ffff99"/><g id="ProcessOnG1011" transform="matrix(1.0,0.0,0.0,1.0,10.0,16.875)"><text id="ProcessOnText1012" fill="#000000" font-size="13" x="14.0" y="13.325" font-family="微软雅黑" font-weight="bold" font-style="normal" text-decoration="none" family="微软雅黑" text-anchor="middle" size="13">16</text></g></g><g id="ProcessOnG1013" transform="matrix(1.0,0.0,0.0,1.0,125.0,15.0)" opacity="1.0"><path id="ProcessOnPath1014" d="M0.0 4.0Q0.0 0.0 4.0 0.0L46.0 0.0Q50.0 0.0 50.0 4.0L50.0 46.0Q50.0 50.0 46.0 50.0L4.0 50.0Q0.0 50.0 0.0 46.0Z" stroke="#ffcc99" stroke-width="2.0" stroke-dasharray="none" opacity="1.0" fill="#ffff99"/><g id="ProcessOnG1015" transform="matrix(1.0,0.0,0.0,1.0,10.0,16.875)"><text id="ProcessOnText1016" fill="#000000" font-size="13" x="14.0" y="13.325" font-family="微软雅黑" font-weight="bold" font-style="normal" text-decoration="none" family="微软雅黑" text-anchor="middle" size="13">84</text></g></g><g id="ProcessOnG1017" transform="matrix(1.0,0.0,0.0,1.0,175.0,15.0)" opacity="1.0"><path id="ProcessOnPath1018" d="M0.0 4.0Q0.0 0.0 4.0 0.0L46.0 0.0Q50.0 0.0 50.0 4.0L50.0 46.0Q50.0 50.0 46.0 50.0L4.0 50.0Q0.0 50.0 0.0 46.0Z" stroke="#ffcc99" stroke-width="2.0" stroke-dasharray="none" opacity="1.0" fill="#ffff99"/><g id="ProcessOnG1019" transform="matrix(1.0,0.0,0.0,1.0,10.0,16.875)"><text id="ProcessOnText1020" fill="#000000" font-size="13" x="14.0" y="13.325" font-family="微软雅黑" font-weight="bold" font-style="normal" text-decoration="none" family="微软雅黑" text-anchor="middle" size="13">12</text></g></g><g id="ProcessOnG1021" transform="matrix(1.0,0.0,0.0,1.0,225.0,15.0)" opacity="1.0"><path id="ProcessOnPath1022" d="M0.0 4.0Q0.0 0.0 4.0 0.0L46.0 0.0Q50.0 0.0 50.0 4.0L50.0 46.0Q50.0 50.0 46.0 50.0L4.0 50.0Q0.0 50.0 0.0 46.0Z" stroke="#ffcc99" stroke-width="2.0" stroke-dasharray="none" opacity="1.0" fill="#ffff99"/><g id="ProcessOnG1023" transform="matrix(1.0,0.0,0.0,1.0,10.0,16.875)"><text id="ProcessOnText1024" fill="#000000" font-size="13" x="14.0" y="13.325" font-family="微软雅黑" font-weight="bold" font-style="normal" text-decoration="none" family="微软雅黑" text-anchor="middle" size="13">77</text></g></g><g id="ProcessOnG1025" transform="matrix(1.0,0.0,0.0,1.0,275.0,15.0)" opacity="1.0"><path id="ProcessOnPath1026" d="M0.0 4.0Q0.0 0.0 4.0 0.0L46.0 0.0Q50.0 0.0 50.0 4.0L50.0 46.0Q50.0 50.0 46.0 50.0L4.0 50.0Q0.0 50.0 0.0 46.0Z" stroke="#ffcc99" stroke-width="2.0" stroke-dasharray="none" opacity="1.0" fill="#ffff99"/><g id="ProcessOnG1027" transform="matrix(1.0,0.0,0.0,1.0,10.0,16.875)"><text id="ProcessOnText1028" fill="#000000" font-size="13" x="14.0" y="13.325" font-family="微软雅黑" font-weight="bold" font-style="normal" text-decoration="none" family="微软雅黑" text-anchor="middle" size="13">26</text></g></g><g id="ProcessOnG1029" transform="matrix(1.0,0.0,0.0,1.0,325.0,15.0)" opacity="1.0"><path id="ProcessOnPath1030" d="M0.0 4.0Q0.0 0.0 4.0 0.0L46.0 0.0Q50.0 0.0 50.0 4.0L50.0 46.0Q50.0 50.0 46.0 50.0L4.0 50.0Q0.0 50.0 0.0 46.0Z" stroke="#ffcc99" stroke-width="2.0" stroke-dasharray="none" opacity="1.0" fill="#ffff99"/><g id="ProcessOnG1031" transform="matrix(1.0,0.0,0.0,1.0,10.0,16.875)"><text id="ProcessOnText1032" fill="#000000" font-size="13" x="14.0" y="13.325" font-family="微软雅黑" font-weight="bold" font-style="normal" text-decoration="none" family="微软雅黑" text-anchor="middle" size="13">53</text></g></g><g id="ProcessOnG1033" transform="matrix(1.0,0.0,0.0,1.0,25.0,111.0)" opacity="1.0"><path id="ProcessOnPath1034" d="M0.0 4.0Q0.0 0.0 4.0 0.0L46.0 0.0Q50.0 0.0 50.0 4.0L50.0 46.0Q50.0 50.0 46.0 50.0L4.0 50.0Q0.0 50.0 0.0 46.0Z" stroke="#ffcc99" stroke-width="2.0" stroke-dasharray="none" opacity="1.0" fill="#66ff66"/><g id="ProcessOnG1035" transform="matrix(1.0,0.0,0.0,1.0,10.0,16.875)"><text id="ProcessOnText1036" fill="#ff6666" font-size="13" x="14.0" y="13.325" font-family="微软雅黑" font-weight="bold" font-style="normal" text-decoration="none" family="微软雅黑" text-anchor="middle" size="13">12</text></g></g><g id="ProcessOnG1037" transform="matrix(1.0,0.0,0.0,1.0,75.0,111.0)" opacity="1.0"><path id="ProcessOnPath1038" d="M0.0 4.0Q0.0 0.0 4.0 0.0L46.0 0.0Q50.0 0.0 50.0 4.0L50.0 46.0Q50.0 50.0 46.0 50.0L4.0 50.0Q0.0 50.0 0.0 46.0Z" stroke="#ffcc99" stroke-width="2.0" stroke-dasharray="none" opacity="1.0" fill="#ffff99"/><g id="ProcessOnG1039" transform="matrix(1.0,0.0,0.0,1.0,10.0,16.875)"><text id="ProcessOnText1040" fill="#000000" font-size="13" x="14.0" y="13.325" font-family="微软雅黑" font-weight="bold" font-style="normal" text-decoration="none" family="微软雅黑" text-anchor="middle" size="13">16</text></g></g><g id="ProcessOnG1041" transform="matrix(1.0,0.0,0.0,1.0,125.0,111.0)" opacity="1.0"><path id="ProcessOnPath1042" d="M0.0 4.0Q0.0 0.0 4.0 0.0L46.0 0.0Q50.0 0.0 50.0 4.0L50.0 46.0Q50.0 50.0 46.0 50.0L4.0 50.0Q0.0 50.0 0.0 46.0Z" stroke="#ffcc99" stroke-width="2.0" stroke-dasharray="none" opacity="1.0" fill="#ffff99"/><g id="ProcessOnG1043" transform="matrix(1.0,0.0,0.0,1.0,10.0,16.875)"><text id="ProcessOnText1044" fill="#000000" font-size="13" x="14.0" y="13.325" font-family="微软雅黑" font-weight="bold" font-style="normal" text-decoration="none" family="微软雅黑" text-anchor="middle" size="13">84</text></g></g><g id="ProcessOnG1045" transform="matrix(1.0,0.0,0.0,1.0,175.0,111.0)" opacity="1.0"><path id="ProcessOnPath1046" d="M0.0 4.0Q0.0 0.0 4.0 0.0L46.0 0.0Q50.0 0.0 50.0 4.0L50.0 46.0Q50.0 50.0 46.0 50.0L4.0 50.0Q0.0 50.0 0.0 46.0Z" stroke="#ffcc99" stroke-width="2.0" stroke-dasharray="none" opacity="1.0" fill="#ffff99"/><g id="ProcessOnG1047" transform="matrix(1.0,0.0,0.0,1.0,10.0,16.875)"><text id="ProcessOnText1048" fill="#ff6666" font-size="13" x="14.0" y="13.325" font-family="微软雅黑" font-weight="bold" font-style="normal" text-decoration="none" family="微软雅黑" text-anchor="middle" size="13">42</text></g></g><g id="ProcessOnG1049" transform="matrix(1.0,0.0,0.0,1.0,225.0,111.0)" opacity="1.0"><path id="ProcessOnPath1050" d="M0.0 4.0Q0.0 0.0 4.0 0.0L46.0 0.0Q50.0 0.0 50.0 4.0L50.0 46.0Q50.0 50.0 46.0 50.0L4.0 50.0Q0.0 50.0 0.0 46.0Z" stroke="#ffcc99" stroke-width="2.0" stroke-dasharray="none" opacity="1.0" fill="#ffff99"/><g id="ProcessOnG1051" transform="matrix(1.0,0.0,0.0,1.0,10.0,16.875)"><text id="ProcessOnText1052" fill="#000000" font-size="13" x="14.0" y="13.325" font-family="微软雅黑" font-weight="bold" font-style="normal" text-decoration="none" family="微软雅黑" text-anchor="middle" size="13">77</text></g></g><g id="ProcessOnG1053" transform="matrix(1.0,0.0,0.0,1.0,275.0,111.0)" opacity="1.0"><path id="ProcessOnPath1054" d="M0.0 4.0Q0.0 0.0 4.0 0.0L46.0 0.0Q50.0 0.0 50.0 4.0L50.0 46.0Q50.0 50.0 46.0 50.0L4.0 50.0Q0.0 50.0 0.0 46.0Z" stroke="#ffcc99" stroke-width="2.0" stroke-dasharray="none" opacity="1.0" fill="#ffff99"/><g id="ProcessOnG1055" transform="matrix(1.0,0.0,0.0,1.0,10.0,16.875)"><text id="ProcessOnText1056" fill="#000000" font-size="13" x="14.0" y="13.325" font-family="微软雅黑" font-weight="bold" font-style="normal" text-decoration="none" family="微软雅黑" text-anchor="middle" size="13">26</text></g></g><g id="ProcessOnG1057" transform="matrix(1.0,0.0,0.0,1.0,325.0,111.0)" opacity="1.0"><path id="ProcessOnPath1058" d="M0.0 4.0Q0.0 0.0 4.0 0.0L46.0 0.0Q50.0 0.0 50.0 4.0L50.0 46.0Q50.0 50.0 46.0 50.0L4.0 50.0Q0.0 50.0 0.0 46.0Z" stroke="#ffcc99" stroke-width="2.0" stroke-dasharray="none" opacity="1.0" fill="#ffff99"/><g id="ProcessOnG1059" transform="matrix(1.0,0.0,0.0,1.0,10.0,16.875)"><text id="ProcessOnText1060" fill="#000000" font-size="13" x="14.0" y="13.325" font-family="微软雅黑" font-weight="bold" font-style="normal" text-decoration="none" family="微软雅黑" text-anchor="middle" size="13">53</text></g></g><g id="ProcessOnG1061"><path id="ProcessOnPath1062" d="M50.0 111.0L50.0 81.0L200.0 81.0L200.0 95.76393202250021" stroke="#323232" stroke-width="2.0" stroke-dasharray="none" fill="none" marker-end="url(#ProcessOnMarker1063)"/></g><g id="ProcessOnG1065"><path id="ProcessOnPath1066" d="M200.0 161.0L200.0 191.0L50.0 191.0L50.0 176.2360679774998" stroke="#323232" stroke-width="2.0" stroke-dasharray="none" fill="none" marker-end="url(#ProcessOnMarker1067)"/></g><g id="ProcessOnG1069" transform="matrix(1.0,0.0,0.0,1.0,25.0,207.0)" opacity="1.0"><path id="ProcessOnPath1070" d="M0.0 4.0Q0.0 0.0 4.0 0.0L46.0 0.0Q50.0 0.0 50.0 4.0L50.0 46.0Q50.0 50.0 46.0 50.0L4.0 50.0Q0.0 50.0 0.0 46.0Z" stroke="#ffcc99" stroke-width="2.0" stroke-dasharray="none" opacity="1.0" fill="#66ff66"/><g id="ProcessOnG1071" transform="matrix(1.0,0.0,0.0,1.0,10.0,16.875)"><text id="ProcessOnText1072" fill="#000000" font-size="13" x="14.0" y="13.325" font-family="微软雅黑" font-weight="bold" font-style="normal" text-decoration="none" family="微软雅黑" text-anchor="middle" size="13">12</text></g></g><g id="ProcessOnG1073" transform="matrix(1.0,0.0,0.0,1.0,75.0,207.0)" opacity="1.0"><path id="ProcessOnPath1074" d="M0.0 4.0Q0.0 0.0 4.0 0.0L46.0 0.0Q50.0 0.0 50.0 4.0L50.0 46.0Q50.0 50.0 46.0 50.0L4.0 50.0Q0.0 50.0 0.0 46.0Z" stroke="#ffcc99" stroke-width="2.0" stroke-dasharray="none" opacity="1.0" fill="#66ff66"/><g id="ProcessOnG1075" transform="matrix(1.0,0.0,0.0,1.0,10.0,16.875)"><text id="ProcessOnText1076" fill="#ff6666" font-size="13" x="14.0" y="13.325" font-family="微软雅黑" font-weight="bold" font-style="normal" text-decoration="none" family="微软雅黑" text-anchor="middle" size="13">16</text></g></g><g id="ProcessOnG1077" transform="matrix(1.0,0.0,0.0,1.0,125.0,207.0)" opacity="1.0"><path id="ProcessOnPath1078" d="M0.0 4.0Q0.0 0.0 4.0 0.0L46.0 0.0Q50.0 0.0 50.0 4.0L50.0 46.0Q50.0 50.0 46.0 50.0L4.0 50.0Q0.0 50.0 0.0 46.0Z" stroke="#ffcc99" stroke-width="2.0" stroke-dasharray="none" opacity="1.0" fill="#ffff99"/><g id="ProcessOnG1079" transform="matrix(1.0,0.0,0.0,1.0,10.0,16.875)"><text id="ProcessOnText1080" fill="#000000" font-size="13" x="14.0" y="13.325" font-family="微软雅黑" font-weight="bold" font-style="normal" text-decoration="none" family="微软雅黑" text-anchor="middle" size="13">84</text></g></g><g id="ProcessOnG1081" transform="matrix(1.0,0.0,0.0,1.0,175.0,207.0)" opacity="1.0"><path id="ProcessOnPath1082" d="M0.0 4.0Q0.0 0.0 4.0 0.0L46.0 0.0Q50.0 0.0 50.0 4.0L50.0 46.0Q50.0 50.0 46.0 50.0L4.0 50.0Q0.0 50.0 0.0 46.0Z" stroke="#ffcc99" stroke-width="2.0" stroke-dasharray="none" opacity="1.0" fill="#ffff99"/><g id="ProcessOnG1083" transform="matrix(1.0,0.0,0.0,1.0,10.0,16.875)"><text id="ProcessOnText1084" fill="#000000" font-size="13" x="14.0" y="13.325" font-family="微软雅黑" font-weight="bold" font-style="normal" text-decoration="none" family="微软雅黑" text-anchor="middle" size="13">42</text></g></g><g id="ProcessOnG1085" transform="matrix(1.0,0.0,0.0,1.0,225.0,207.0)" opacity="1.0"><path id="ProcessOnPath1086" d="M0.0 4.0Q0.0 0.0 4.0 0.0L46.0 0.0Q50.0 0.0 50.0 4.0L50.0 46.0Q50.0 50.0 46.0 50.0L4.0 50.0Q0.0 50.0 0.0 46.0Z" stroke="#ffcc99" stroke-width="2.0" stroke-dasharray="none" opacity="1.0" fill="#ffff99"/><g id="ProcessOnG1087" transform="matrix(1.0,0.0,0.0,1.0,10.0,16.875)"><text id="ProcessOnText1088" fill="#000000" font-size="13" x="14.0" y="13.325" font-family="微软雅黑" font-weight="bold" font-style="normal" text-decoration="none" family="微软雅黑" text-anchor="middle" size="13">77</text></g></g><g id="ProcessOnG1089" transform="matrix(1.0,0.0,0.0,1.0,275.0,207.0)" opacity="1.0"><path id="ProcessOnPath1090" d="M0.0 4.0Q0.0 0.0 4.0 0.0L46.0 0.0Q50.0 0.0 50.0 4.0L50.0 46.0Q50.0 50.0 46.0 50.0L4.0 50.0Q0.0 50.0 0.0 46.0Z" stroke="#ffcc99" stroke-width="2.0" stroke-dasharray="none" opacity="1.0" fill="#ffff99"/><g id="ProcessOnG1091" transform="matrix(1.0,0.0,0.0,1.0,10.0,16.875)"><text id="ProcessOnText1092" fill="#000000" font-size="13" x="14.0" y="13.325" font-family="微软雅黑" font-weight="bold" font-style="normal" text-decoration="none" family="微软雅黑" text-anchor="middle" size="13">26</text></g></g><g id="ProcessOnG1093" transform="matrix(1.0,0.0,0.0,1.0,325.0,207.0)" opacity="1.0"><path id="ProcessOnPath1094" d="M0.0 4.0Q0.0 0.0 4.0 0.0L46.0 0.0Q50.0 0.0 50.0 4.0L50.0 46.0Q50.0 50.0 46.0 50.0L4.0 50.0Q0.0 50.0 0.0 46.0Z" stroke="#ffcc99" stroke-width="2.0" stroke-dasharray="none" opacity="1.0" fill="#ffff99"/><g id="ProcessOnG1095" transform="matrix(1.0,0.0,0.0,1.0,10.0,16.875)"><text id="ProcessOnText1096" fill="#000000" font-size="13" x="14.0" y="13.325" font-family="微软雅黑" font-weight="bold" font-style="normal" text-decoration="none" family="微软雅黑" text-anchor="middle" size="13">53</text></g></g><g id="ProcessOnG1097" transform="matrix(1.0,0.0,0.0,1.0,25.0,304.0)" opacity="1.0"><path id="ProcessOnPath1098" d="M0.0 4.0Q0.0 0.0 4.0 0.0L46.0 0.0Q50.0 0.0 50.0 4.0L50.0 46.0Q50.0 50.0 46.0 50.0L4.0 50.0Q0.0 50.0 0.0 46.0Z" stroke="#ffcc99" stroke-width="2.0" stroke-dasharray="none" opacity="1.0" fill="#66ff66"/><g id="ProcessOnG1099" transform="matrix(1.0,0.0,0.0,1.0,10.0,16.875)"><text id="ProcessOnText1100" fill="#000000" font-size="13" x="14.0" y="13.325" font-family="微软雅黑" font-weight="bold" font-style="normal" text-decoration="none" family="微软雅黑" text-anchor="middle" size="13">12</text></g></g><g id="ProcessOnG1101" transform="matrix(1.0,0.0,0.0,1.0,75.0,304.0)" opacity="1.0"><path id="ProcessOnPath1102" d="M0.0 4.0Q0.0 0.0 4.0 0.0L46.0 0.0Q50.0 0.0 50.0 4.0L50.0 46.0Q50.0 50.0 46.0 50.0L4.0 50.0Q0.0 50.0 0.0 46.0Z" stroke="#ffcc99" stroke-width="2.0" stroke-dasharray="none" opacity="1.0" fill="#66ff66"/><g id="ProcessOnG1103" transform="matrix(1.0,0.0,0.0,1.0,10.0,16.875)"><text id="ProcessOnText1104" fill="#000000" font-size="13" x="14.0" y="13.325" font-family="微软雅黑" font-weight="bold" font-style="normal" text-decoration="none" family="微软雅黑" text-anchor="middle" size="13">16</text></g></g><g id="ProcessOnG1105" transform="matrix(1.0,0.0,0.0,1.0,125.0,304.0)" opacity="1.0"><path id="ProcessOnPath1106" d="M0.0 4.0Q0.0 0.0 4.0 0.0L46.0 0.0Q50.0 0.0 50.0 4.0L50.0 46.0Q50.0 50.0 46.0 50.0L4.0 50.0Q0.0 50.0 0.0 46.0Z" stroke="#ffcc99" stroke-width="2.0" stroke-dasharray="none" opacity="1.0" fill="#66ff66"/><g id="ProcessOnG1107" transform="matrix(1.0,0.0,0.0,1.0,10.0,16.875)"><text id="ProcessOnText1108" fill="#ff6666" font-size="13" x="14.0" y="13.325" font-family="微软雅黑" font-weight="bold" font-style="normal" text-decoration="none" family="微软雅黑" text-anchor="middle" size="13">26</text></g></g><g id="ProcessOnG1109" transform="matrix(1.0,0.0,0.0,1.0,175.0,304.0)" opacity="1.0"><path id="ProcessOnPath1110" d="M0.0 4.0Q0.0 0.0 4.0 0.0L46.0 0.0Q50.0 0.0 50.0 4.0L50.0 46.0Q50.0 50.0 46.0 50.0L4.0 50.0Q0.0 50.0 0.0 46.0Z" stroke="#ffcc99" stroke-width="2.0" stroke-dasharray="none" opacity="1.0" fill="#ffff99"/><g id="ProcessOnG1111" transform="matrix(1.0,0.0,0.0,1.0,10.0,16.875)"><text id="ProcessOnText1112" fill="#000000" font-size="13" x="14.0" y="13.325" font-family="微软雅黑" font-weight="bold" font-style="normal" text-decoration="none" family="微软雅黑" text-anchor="middle" size="13">42</text></g></g><g id="ProcessOnG1113" transform="matrix(1.0,0.0,0.0,1.0,225.0,304.0)" opacity="1.0"><path id="ProcessOnPath1114" d="M0.0 4.0Q0.0 0.0 4.0 0.0L46.0 0.0Q50.0 0.0 50.0 4.0L50.0 46.0Q50.0 50.0 46.0 50.0L4.0 50.0Q0.0 50.0 0.0 46.0Z" stroke="#ffcc99" stroke-width="2.0" stroke-dasharray="none" opacity="1.0" fill="#ffff99"/><g id="ProcessOnG1115" transform="matrix(1.0,0.0,0.0,1.0,10.0,16.875)"><text id="ProcessOnText1116" fill="#000000" font-size="13" x="14.0" y="13.325" font-family="微软雅黑" font-weight="bold" font-style="normal" text-decoration="none" family="微软雅黑" text-anchor="middle" size="13">77</text></g></g><g id="ProcessOnG1117" transform="matrix(1.0,0.0,0.0,1.0,275.0,304.0)" opacity="1.0"><path id="ProcessOnPath1118" d="M0.0 4.0Q0.0 0.0 4.0 0.0L46.0 0.0Q50.0 0.0 50.0 4.0L50.0 46.0Q50.0 50.0 46.0 50.0L4.0 50.0Q0.0 50.0 0.0 46.0Z" stroke="#ffcc99" stroke-width="2.0" stroke-dasharray="none" opacity="1.0" fill="#ffff99"/><g id="ProcessOnG1119" transform="matrix(1.0,0.0,0.0,1.0,10.0,16.875)"><text id="ProcessOnText1120" fill="#ff6666" font-size="13" x="14.0" y="13.325" font-family="微软雅黑" font-weight="bold" font-style="normal" text-decoration="none" family="微软雅黑" text-anchor="middle" size="13">84</text></g></g><g id="ProcessOnG1121" transform="matrix(1.0,0.0,0.0,1.0,325.0,304.0)" opacity="1.0"><path id="ProcessOnPath1122" d="M0.0 4.0Q0.0 0.0 4.0 0.0L46.0 0.0Q50.0 0.0 50.0 4.0L50.0 46.0Q50.0 50.0 46.0 50.0L4.0 50.0Q0.0 50.0 0.0 46.0Z" stroke="#ffcc99" stroke-width="2.0" stroke-dasharray="none" opacity="1.0" fill="#ffff99"/><g id="ProcessOnG1123" transform="matrix(1.0,0.0,0.0,1.0,10.0,16.875)"><text id="ProcessOnText1124" fill="#000000" font-size="13" x="14.0" y="13.325" font-family="微软雅黑" font-weight="bold" font-style="normal" text-decoration="none" family="微软雅黑" text-anchor="middle" size="13">53</text></g></g><g id="ProcessOnG1125"><path id="ProcessOnPath1126" d="M300.0 354.0L300.0 384.0L150.0 384.0L150.0 369.2360679774998" stroke="#323232" stroke-width="2.0" stroke-dasharray="none" fill="none" marker-end="url(#ProcessOnMarker1127)"/></g><g id="ProcessOnG1129"><path id="ProcessOnPath1130" d="M150.0 304.0L150.0 274.0L300.0 274.0L300.0 288.7639320225002" stroke="#323232" stroke-width="2.0" stroke-dasharray="none" fill="none" marker-end="url(#ProcessOnMarker1131)"/></g><g id="ProcessOnG1133" transform="matrix(1.0,0.0,0.0,1.0,25.0,395.0)" opacity="1.0"><path id="ProcessOnPath1134" d="M0.0 4.0Q0.0 0.0 4.0 0.0L46.0 0.0Q50.0 0.0 50.0 4.0L50.0 46.0Q50.0 50.0 46.0 50.0L4.0 50.0Q0.0 50.0 0.0 46.0Z" stroke="#ffcc99" stroke-width="2.0" stroke-dasharray="none" opacity="1.0" fill="#66ff66"/><g id="ProcessOnG1135" transform="matrix(1.0,0.0,0.0,1.0,10.0,16.875)"><text id="ProcessOnText1136" fill="#000000" font-size="13" x="14.0" y="13.325" font-family="微软雅黑" font-weight="bold" font-style="normal" text-decoration="none" family="微软雅黑" text-anchor="middle" size="13">12</text></g></g><g id="ProcessOnG1137" transform="matrix(1.0,0.0,0.0,1.0,75.0,395.0)" opacity="1.0"><path id="ProcessOnPath1138" d="M0.0 4.0Q0.0 0.0 4.0 0.0L46.0 0.0Q50.0 0.0 50.0 4.0L50.0 46.0Q50.0 50.0 46.0 50.0L4.0 50.0Q0.0 50.0 0.0 46.0Z" stroke="#ffcc99" stroke-width="2.0" stroke-dasharray="none" opacity="1.0" fill="#66ff66"/><g id="ProcessOnG1139" transform="matrix(1.0,0.0,0.0,1.0,10.0,16.875)"><text id="ProcessOnText1140" fill="#000000" font-size="13" x="14.0" y="13.325" font-family="微软雅黑" font-weight="bold" font-style="normal" text-decoration="none" family="微软雅黑" text-anchor="middle" size="13">16</text></g></g><g id="ProcessOnG1141" transform="matrix(1.0,0.0,0.0,1.0,125.0,395.0)" opacity="1.0"><path id="ProcessOnPath1142" d="M0.0 4.0Q0.0 0.0 4.0 0.0L46.0 0.0Q50.0 0.0 50.0 4.0L50.0 46.0Q50.0 50.0 46.0 50.0L4.0 50.0Q0.0 50.0 0.0 46.0Z" stroke="#ffcc99" stroke-width="2.0" stroke-dasharray="none" opacity="1.0" fill="#66ff66"/><g id="ProcessOnG1143" transform="matrix(1.0,0.0,0.0,1.0,10.0,16.875)"><text id="ProcessOnText1144" fill="#000000" font-size="13" x="14.0" y="13.325" font-family="微软雅黑" font-weight="bold" font-style="normal" text-decoration="none" family="微软雅黑" text-anchor="middle" size="13">26</text></g></g><g id="ProcessOnG1145" transform="matrix(1.0,0.0,0.0,1.0,175.0,395.0)" opacity="1.0"><path id="ProcessOnPath1146" d="M0.0 4.0Q0.0 0.0 4.0 0.0L46.0 0.0Q50.0 0.0 50.0 4.0L50.0 46.0Q50.0 50.0 46.0 50.0L4.0 50.0Q0.0 50.0 0.0 46.0Z" stroke="#ffcc99" stroke-width="2.0" stroke-dasharray="none" opacity="1.0" fill="#66ff66"/><g id="ProcessOnG1147" transform="matrix(1.0,0.0,0.0,1.0,10.0,16.875)"><text id="ProcessOnText1148" fill="#ff6666" font-size="13" x="14.0" y="13.325" font-family="微软雅黑" font-weight="bold" font-style="normal" text-decoration="none" family="微软雅黑" text-anchor="middle" size="13">42</text></g></g><g id="ProcessOnG1149" transform="matrix(1.0,0.0,0.0,1.0,225.0,395.0)" opacity="1.0"><path id="ProcessOnPath1150" d="M0.0 4.0Q0.0 0.0 4.0 0.0L46.0 0.0Q50.0 0.0 50.0 4.0L50.0 46.0Q50.0 50.0 46.0 50.0L4.0 50.0Q0.0 50.0 0.0 46.0Z" stroke="#ffcc99" stroke-width="2.0" stroke-dasharray="none" opacity="1.0" fill="#ffff99"/><g id="ProcessOnG1151" transform="matrix(1.0,0.0,0.0,1.0,10.0,16.875)"><text id="ProcessOnText1152" fill="#000000" font-size="13" x="14.0" y="13.325" font-family="微软雅黑" font-weight="bold" font-style="normal" text-decoration="none" family="微软雅黑" text-anchor="middle" size="13">77</text></g></g><g id="ProcessOnG1153" transform="matrix(1.0,0.0,0.0,1.0,275.0,395.0)" opacity="1.0"><path id="ProcessOnPath1154" d="M0.0 4.0Q0.0 0.0 4.0 0.0L46.0 0.0Q50.0 0.0 50.0 4.0L50.0 46.0Q50.0 50.0 46.0 50.0L4.0 50.0Q0.0 50.0 0.0 46.0Z" stroke="#ffcc99" stroke-width="2.0" stroke-dasharray="none" opacity="1.0" fill="#ffff99"/><g id="ProcessOnG1155" transform="matrix(1.0,0.0,0.0,1.0,10.0,16.875)"><text id="ProcessOnText1156" fill="#000000" font-size="13" x="14.0" y="13.325" font-family="微软雅黑" font-weight="bold" font-style="normal" text-decoration="none" family="微软雅黑" text-anchor="middle" size="13">84</text></g></g><g id="ProcessOnG1157" transform="matrix(1.0,0.0,0.0,1.0,325.0,395.0)" opacity="1.0"><path id="ProcessOnPath1158" d="M0.0 4.0Q0.0 0.0 4.0 0.0L46.0 0.0Q50.0 0.0 50.0 4.0L50.0 46.0Q50.0 50.0 46.0 50.0L4.0 50.0Q0.0 50.0 0.0 46.0Z" stroke="#ffcc99" stroke-width="2.0" stroke-dasharray="none" opacity="1.0" fill="#ffff99"/><g id="ProcessOnG1159" transform="matrix(1.0,0.0,0.0,1.0,10.0,16.875)"><text id="ProcessOnText1160" fill="#000000" font-size="13" x="14.0" y="13.325" font-family="微软雅黑" font-weight="bold" font-style="normal" text-decoration="none" family="微软雅黑" text-anchor="middle" size="13">53</text></g></g><g id="ProcessOnG1161" transform="matrix(1.0,0.0,0.0,1.0,25.0,489.0)" opacity="1.0"><path id="ProcessOnPath1162" d="M0.0 4.0Q0.0 0.0 4.0 0.0L46.0 0.0Q50.0 0.0 50.0 4.0L50.0 46.0Q50.0 50.0 46.0 50.0L4.0 50.0Q0.0 50.0 0.0 46.0Z" stroke="#ffcc99" stroke-width="2.0" stroke-dasharray="none" opacity="1.0" fill="#66ff66"/><g id="ProcessOnG1163" transform="matrix(1.0,0.0,0.0,1.0,10.0,16.875)"><text id="ProcessOnText1164" fill="#000000" font-size="13" x="14.0" y="13.325" font-family="微软雅黑" font-weight="bold" font-style="normal" text-decoration="none" family="微软雅黑" text-anchor="middle" size="13">12</text></g></g><g id="ProcessOnG1165" transform="matrix(1.0,0.0,0.0,1.0,75.0,489.0)" opacity="1.0"><path id="ProcessOnPath1166" d="M0.0 4.0Q0.0 0.0 4.0 0.0L46.0 0.0Q50.0 0.0 50.0 4.0L50.0 46.0Q50.0 50.0 46.0 50.0L4.0 50.0Q0.0 50.0 0.0 46.0Z" stroke="#ffcc99" stroke-width="2.0" stroke-dasharray="none" opacity="1.0" fill="#66ff66"/><g id="ProcessOnG1167" transform="matrix(1.0,0.0,0.0,1.0,10.0,16.875)"><text id="ProcessOnText1168" fill="#000000" font-size="13" x="14.0" y="13.325" font-family="微软雅黑" font-weight="bold" font-style="normal" text-decoration="none" family="微软雅黑" text-anchor="middle" size="13">16</text></g></g><g id="ProcessOnG1169" transform="matrix(1.0,0.0,0.0,1.0,125.0,489.0)" opacity="1.0"><path id="ProcessOnPath1170" d="M0.0 4.0Q0.0 0.0 4.0 0.0L46.0 0.0Q50.0 0.0 50.0 4.0L50.0 46.0Q50.0 50.0 46.0 50.0L4.0 50.0Q0.0 50.0 0.0 46.0Z" stroke="#ffcc99" stroke-width="2.0" stroke-dasharray="none" opacity="1.0" fill="#66ff66"/><g id="ProcessOnG1171" transform="matrix(1.0,0.0,0.0,1.0,10.0,16.875)"><text id="ProcessOnText1172" fill="#000000" font-size="13" x="14.0" y="13.325" font-family="微软雅黑" font-weight="bold" font-style="normal" text-decoration="none" family="微软雅黑" text-anchor="middle" size="13">26</text></g></g><g id="ProcessOnG1173" transform="matrix(1.0,0.0,0.0,1.0,175.0,489.0)" opacity="1.0"><path id="ProcessOnPath1174" d="M0.0 4.0Q0.0 0.0 4.0 0.0L46.0 0.0Q50.0 0.0 50.0 4.0L50.0 46.0Q50.0 50.0 46.0 50.0L4.0 50.0Q0.0 50.0 0.0 46.0Z" stroke="#ffcc99" stroke-width="2.0" stroke-dasharray="none" opacity="1.0" fill="#66ff66"/><g id="ProcessOnG1175" transform="matrix(1.0,0.0,0.0,1.0,10.0,16.875)"><text id="ProcessOnText1176" fill="#000000" font-size="13" x="14.0" y="13.325" font-family="微软雅黑" font-weight="bold" font-style="normal" text-decoration="none" family="微软雅黑" text-anchor="middle" size="13">42</text></g></g><g id="ProcessOnG1177" transform="matrix(1.0,0.0,0.0,1.0,225.0,489.0)" opacity="1.0"><path id="ProcessOnPath1178" d="M0.0 4.0Q0.0 0.0 4.0 0.0L46.0 0.0Q50.0 0.0 50.0 4.0L50.0 46.0Q50.0 50.0 46.0 50.0L4.0 50.0Q0.0 50.0 0.0 46.0Z" stroke="#ffcc99" stroke-width="2.0" stroke-dasharray="none" opacity="1.0" fill="#66ff66"/><g id="ProcessOnG1179" transform="matrix(1.0,0.0,0.0,1.0,10.0,16.875)"><text id="ProcessOnText1180" fill="#ff6666" font-size="13" x="14.0" y="13.325" font-family="微软雅黑" font-weight="bold" font-style="normal" text-decoration="none" family="微软雅黑" text-anchor="middle" size="13">53</text></g></g><g id="ProcessOnG1181" transform="matrix(1.0,0.0,0.0,1.0,275.0,489.0)" opacity="1.0"><path id="ProcessOnPath1182" d="M0.0 4.0Q0.0 0.0 4.0 0.0L46.0 0.0Q50.0 0.0 50.0 4.0L50.0 46.0Q50.0 50.0 46.0 50.0L4.0 50.0Q0.0 50.0 0.0 46.0Z" stroke="#ffcc99" stroke-width="2.0" stroke-dasharray="none" opacity="1.0" fill="#ffff99"/><g id="ProcessOnG1183" transform="matrix(1.0,0.0,0.0,1.0,10.0,16.875)"><text id="ProcessOnText1184" fill="#000000" font-size="13" x="14.0" y="13.325" font-family="微软雅黑" font-weight="bold" font-style="normal" text-decoration="none" family="微软雅黑" text-anchor="middle" size="13">84</text></g></g><g id="ProcessOnG1185" transform="matrix(1.0,0.0,0.0,1.0,325.0,489.0)" opacity="1.0"><path id="ProcessOnPath1186" d="M0.0 4.0Q0.0 0.0 4.0 0.0L46.0 0.0Q50.0 0.0 50.0 4.0L50.0 46.0Q50.0 50.0 46.0 50.0L4.0 50.0Q0.0 50.0 0.0 46.0Z" stroke="#ffcc99" stroke-width="2.0" stroke-dasharray="none" opacity="1.0" fill="#ffff99"/><g id="ProcessOnG1187" transform="matrix(1.0,0.0,0.0,1.0,10.0,16.875)"><text id="ProcessOnText1188" fill="#ff6666" font-size="13" x="14.0" y="13.325" font-family="微软雅黑" font-weight="bold" font-style="normal" text-decoration="none" family="微软雅黑" text-anchor="middle" size="13">77</text></g></g><g id="ProcessOnG1189"><path id="ProcessOnPath1190" d="M250.0 489.0L250.0 459.0L350.0 459.0L350.0 473.7639320225002" stroke="#323232" stroke-width="2.0" stroke-dasharray="none" fill="none" marker-end="url(#ProcessOnMarker1191)"/></g><g id="ProcessOnG1193"><path id="ProcessOnPath1194" d="M350.0 539.0L350.0 569.0L250.0 569.0L250.0 554.2360679774998" stroke="#323232" stroke-width="2.0" stroke-dasharray="none" fill="none" marker-end="url(#ProcessOnMarker1195)"/></g><g id="ProcessOnG1197" transform="matrix(1.0,0.0,0.0,1.0,25.0,609.0)" opacity="1.0"><path id="ProcessOnPath1198" d="M0.0 4.0Q0.0 0.0 4.0 0.0L46.0 0.0Q50.0 0.0 50.0 4.0L50.0 46.0Q50.0 50.0 46.0 50.0L4.0 50.0Q0.0 50.0 0.0 46.0Z" stroke="#ffcc99" stroke-width="2.0" stroke-dasharray="none" opacity="1.0" fill="#66ff66"/><g id="ProcessOnG1199" transform="matrix(1.0,0.0,0.0,1.0,10.0,16.875)"><text id="ProcessOnText1200" fill="#000000" font-size="13" x="14.0" y="13.325" font-family="微软雅黑" font-weight="bold" font-style="normal" text-decoration="none" family="微软雅黑" text-anchor="middle" size="13">12</text></g></g><g id="ProcessOnG1201" transform="matrix(1.0,0.0,0.0,1.0,75.0,609.0)" opacity="1.0"><path id="ProcessOnPath1202" d="M0.0 4.0Q0.0 0.0 4.0 0.0L46.0 0.0Q50.0 0.0 50.0 4.0L50.0 46.0Q50.0 50.0 46.0 50.0L4.0 50.0Q0.0 50.0 0.0 46.0Z" stroke="#ffcc99" stroke-width="2.0" stroke-dasharray="none" opacity="1.0" fill="#66ff66"/><g id="ProcessOnG1203" transform="matrix(1.0,0.0,0.0,1.0,10.0,16.875)"><text id="ProcessOnText1204" fill="#000000" font-size="13" x="14.0" y="13.325" font-family="微软雅黑" font-weight="bold" font-style="normal" text-decoration="none" family="微软雅黑" text-anchor="middle" size="13">16</text></g></g><g id="ProcessOnG1205" transform="matrix(1.0,0.0,0.0,1.0,125.0,609.0)" opacity="1.0"><path id="ProcessOnPath1206" d="M0.0 4.0Q0.0 0.0 4.0 0.0L46.0 0.0Q50.0 0.0 50.0 4.0L50.0 46.0Q50.0 50.0 46.0 50.0L4.0 50.0Q0.0 50.0 0.0 46.0Z" stroke="#ffcc99" stroke-width="2.0" stroke-dasharray="none" opacity="1.0" fill="#66ff66"/><g id="ProcessOnG1207" transform="matrix(1.0,0.0,0.0,1.0,10.0,16.875)"><text id="ProcessOnText1208" fill="#000000" font-size="13" x="14.0" y="13.325" font-family="微软雅黑" font-weight="bold" font-style="normal" text-decoration="none" family="微软雅黑" text-anchor="middle" size="13">26</text></g></g><g id="ProcessOnG1209" transform="matrix(1.0,0.0,0.0,1.0,175.0,609.0)" opacity="1.0"><path id="ProcessOnPath1210" d="M0.0 4.0Q0.0 0.0 4.0 0.0L46.0 0.0Q50.0 0.0 50.0 4.0L50.0 46.0Q50.0 50.0 46.0 50.0L4.0 50.0Q0.0 50.0 0.0 46.0Z" stroke="#ffcc99" stroke-width="2.0" stroke-dasharray="none" opacity="1.0" fill="#66ff66"/><g id="ProcessOnG1211" transform="matrix(1.0,0.0,0.0,1.0,10.0,16.875)"><text id="ProcessOnText1212" fill="#000000" font-size="13" x="14.0" y="13.325" font-family="微软雅黑" font-weight="bold" font-style="normal" text-decoration="none" family="微软雅黑" text-anchor="middle" size="13">42</text></g></g><g id="ProcessOnG1213" transform="matrix(1.0,0.0,0.0,1.0,225.0,609.0)" opacity="1.0"><path id="ProcessOnPath1214" d="M0.0 4.0Q0.0 0.0 4.0 0.0L46.0 0.0Q50.0 0.0 50.0 4.0L50.0 46.0Q50.0 50.0 46.0 50.0L4.0 50.0Q0.0 50.0 0.0 46.0Z" stroke="#ffcc99" stroke-width="2.0" stroke-dasharray="none" opacity="1.0" fill="#66ff66"/><g id="ProcessOnG1215" transform="matrix(1.0,0.0,0.0,1.0,10.0,16.875)"><text id="ProcessOnText1216" fill="#000000" font-size="13" x="14.0" y="13.325" font-family="微软雅黑" font-weight="bold" font-style="normal" text-decoration="none" family="微软雅黑" text-anchor="middle" size="13">53</text></g></g><g id="ProcessOnG1217" transform="matrix(1.0,0.0,0.0,1.0,275.0,609.0)" opacity="1.0"><path id="ProcessOnPath1218" d="M0.0 4.0Q0.0 0.0 4.0 0.0L46.0 0.0Q50.0 0.0 50.0 4.0L50.0 46.0Q50.0 50.0 46.0 50.0L4.0 50.0Q0.0 50.0 0.0 46.0Z" stroke="#ffcc99" stroke-width="2.0" stroke-dasharray="none" opacity="1.0" fill="#66ff66"/><g id="ProcessOnG1219" transform="matrix(1.0,0.0,0.0,1.0,10.0,16.875)"><text id="ProcessOnText1220" fill="#ff6666" font-size="13" x="14.0" y="13.325" font-family="微软雅黑" font-weight="bold" font-style="normal" text-decoration="none" family="微软雅黑" text-anchor="middle" size="13">77</text></g></g><g id="ProcessOnG1221" transform="matrix(1.0,0.0,0.0,1.0,325.0,609.0)" opacity="1.0"><path id="ProcessOnPath1222" d="M0.0 4.0Q0.0 0.0 4.0 0.0L46.0 0.0Q50.0 0.0 50.0 4.0L50.0 46.0Q50.0 50.0 46.0 50.0L4.0 50.0Q0.0 50.0 0.0 46.0Z" stroke="#ffcc99" stroke-width="2.0" stroke-dasharray="none" opacity="1.0" fill="#ffff99"/><g id="ProcessOnG1223" transform="matrix(1.0,0.0,0.0,1.0,10.0,16.875)"><text id="ProcessOnText1224" fill="#ff6666" font-size="13" x="14.0" y="13.325" font-family="微软雅黑" font-weight="bold" font-style="normal" text-decoration="none" family="微软雅黑" text-anchor="middle" size="13">84</text></g></g><g id="ProcessOnG1225"><path id="ProcessOnPath1226" d="M300.0 609.0L300.0 579.0L350.0 579.0L350.0 593.7639320225002" stroke="#323232" stroke-width="2.0" stroke-dasharray="none" fill="none" marker-end="url(#ProcessOnMarker1227)"/></g><g id="ProcessOnG1229"><path id="ProcessOnPath1230" d="M350.0 659.0L350.0 689.0L300.0 689.0L300.0 674.2360679774998" stroke="#323232" stroke-width="2.0" stroke-dasharray="none" fill="none" marker-end="url(#ProcessOnMarker1231)"/></g></g></g></svg>